<svg id="visual" viewBox="0 0 675 900" width="675" height="900" xmlns="http://www.w3.org/2000/svg" xmlns:xlink="http://www.w3.org/1999/xlink" version="1.1">
<path d="M0 449L8.7 456.2C17.3 463.3 34.7 477.7 52 487.2C69.3 496.7 86.7 501.3 104 503C121.3 504.7 138.7 503.3 156 512.7C173.3 522 190.7 542 208 562.2C225.3 582.3 242.7 602.7 260 604.3C277.3 606 294.7 589 311.8 588.3C329 587.7 346 603.3 363.2 601.7C380.3 600 397.7 581 415 584.3C432.3 587.7 449.7 613.3 467 608C484.3 602.7 501.7 566.3 519 565.5C536.3 564.7 553.7 599.3 571 609.3C588.3 619.3 605.7 604.7 623 585.2C640.3 565.7 657.7 541.3 666.3 529.2L675 517L675 901L666.3 901C657.7 901 640.3 901 623 901C605.7 901 588.3 901 571 901C553.7 901 536.3 901 519 901C501.7 901 484.3 901 467 901C449.7 901 432.3 901 415 901C397.7 901 380.3 901 363.2 901C346 901 329 901 311.8 901C294.7 901 277.3 901 260 901C242.7 901 225.3 901 208 901C190.7 901 173.3 901 156 901C138.7 901 121.3 901 104 901C86.7 901 69.3 901 52 901C34.7 901 17.3 901 8.7 901L0 901Z" fill="#9e6db3"></path><path d="M0 649L8.7 640.3C17.3 631.7 34.7 614.3 52 596.8C69.3 579.3 86.7 561.7 104 560C121.3 558.3 138.7 572.7 156 592.2C173.3 611.7 190.7 636.3 208 625.7C225.3 615 242.7 569 260 565.2C277.3 561.3 294.7 599.7 311.8 610.7C329 621.7 346 605.3 363.2 607.8C380.3 610.3 397.7 631.7 415 618C432.3 604.3 449.7 555.7 467 539.2C484.3 522.7 501.7 538.3 519 541.5C536.3 544.7 553.7 535.3 571 536.8C588.3 538.3 605.7 550.7 623 571.5C640.3 592.3 657.7 621.7 666.3 636.3L675 651L675 901L666.3 901C657.7 901 640.3 901 623 901C605.7 901 588.3 901 571 901C553.7 901 536.3 901 519 901C501.7 901 484.3 901 467 901C449.7 901 432.3 901 415 901C397.7 901 380.3 901 363.2 901C346 901 329 901 311.8 901C294.7 901 277.3 901 260 901C242.7 901 225.3 901 208 901C190.7 901 173.3 901 156 901C138.7 901 121.3 901 104 901C86.7 901 69.3 901 52 901C34.7 901 17.3 901 8.7 901L0 901Z" fill="#9b69b1"></path><path d="M0 611L8.7 607.3C17.3 603.7 34.7 596.3 52 599.8C69.3 603.3 86.7 617.7 104 631.5C121.3 645.3 138.7 658.7 156 668.2C173.3 677.7 190.7 683.3 208 685.3C225.3 687.3 242.7 685.7 260 685.7C277.3 685.7 294.7 687.3 311.8 684.7C329 682 346 675 363.2 664.3C380.3 653.7 397.7 639.3 415 639C432.3 638.7 449.7 652.3 467 655.2C484.3 658 501.7 650 519 641C536.3 632 553.7 622 571 604.5C588.3 587 605.7 562 623 565.7C640.3 569.3 657.7 601.7 666.3 617.8L675 634L675 901L666.3 901C657.7 901 640.3 901 623 901C605.7 901 588.3 901 571 901C553.7 901 536.3 901 519 901C501.7 901 484.3 901 467 901C449.7 901 432.3 901 415 901C397.7 901 380.3 901 363.2 901C346 901 329 901 311.8 901C294.7 901 277.3 901 260 901C242.7 901 225.3 901 208 901C190.7 901 173.3 901 156 901C138.7 901 121.3 901 104 901C86.7 901 69.3 901 52 901C34.7 901 17.3 901 8.7 901L0 901Z" fill="#9864af"></path><path d="M0 694L8.7 697.3C17.3 700.7 34.7 707.3 52 689C69.3 670.7 86.7 627.3 104 627.5C121.3 627.7 138.7 671.3 156 676.8C173.3 682.3 190.7 649.7 208 646C225.3 642.3 242.7 667.7 260 668.8C277.3 670 294.7 647 311.8 630.5C329 614 346 604 363.2 615.5C380.3 627 397.7 660 415 679.7C432.3 699.3 449.7 705.7 467 694.2C484.3 682.7 501.7 653.3 519 655C536.3 656.7 553.7 689.3 571 704.8C588.3 720.3 605.7 718.7 623 694.7C640.3 670.7 657.7 624.3 666.3 601.2L675 578L675 901L666.3 901C657.7 901 640.3 901 623 901C605.7 901 588.3 901 571 901C553.7 901 536.3 901 519 901C501.7 901 484.3 901 467 901C449.7 901 432.3 901 415 901C397.7 901 380.3 901 363.2 901C346 901 329 901 311.8 901C294.7 901 277.3 901 260 901C242.7 901 225.3 901 208 901C190.7 901 173.3 901 156 901C138.7 901 121.3 901 104 901C86.7 901 69.3 901 52 901C34.7 901 17.3 901 8.7 901L0 901Z" fill="#9560ac"></path><path d="M0 634L8.7 632.5C17.3 631 34.7 628 52 638C69.3 648 86.7 671 104 684C121.3 697 138.7 700 156 704.3C173.3 708.7 190.7 714.3 208 705.3C225.3 696.3 242.7 672.7 260 671.7C277.3 670.7 294.7 692.3 311.8 703C329 713.7 346 713.3 363.2 717.3C380.3 721.3 397.7 729.7 415 731.8C432.3 734 449.7 730 467 710.3C484.3 690.7 501.7 655.3 519 658.5C536.3 661.7 553.7 703.3 571 705.8C588.3 708.3 605.7 671.7 623 653C640.3 634.3 657.7 633.7 666.3 633.3L675 633L675 901L666.3 901C657.7 901 640.3 901 623 901C605.7 901 588.3 901 571 901C553.7 901 536.3 901 519 901C501.7 901 484.3 901 467 901C449.7 901 432.3 901 415 901C397.7 901 380.3 901 363.2 901C346 901 329 901 311.8 901C294.7 901 277.3 901 260 901C242.7 901 225.3 901 208 901C190.7 901 173.3 901 156 901C138.7 901 121.3 901 104 901C86.7 901 69.3 901 52 901C34.7 901 17.3 901 8.7 901L0 901Z" fill="#925baa"></path><path d="M0 766L8.7 765.8C17.3 765.7 34.7 765.3 52 759.3C69.3 753.3 86.7 741.7 104 737.8C121.3 734 138.7 738 156 737C173.3 736 190.7 730 208 725.7C225.3 721.3 242.7 718.7 260 720.8C277.3 723 294.7 730 311.8 722.7C329 715.3 346 693.7 363.2 689.5C380.3 685.3 397.7 698.7 415 706C432.3 713.3 449.7 714.7 467 713.7C484.3 712.7 501.7 709.3 519 703.2C536.3 697 553.7 688 571 691.7C588.3 695.3 605.7 711.7 623 709.3C640.3 707 657.7 686 666.3 675.5L675 665L675 901L666.3 901C657.7 901 640.3 901 623 901C605.7 901 588.3 901 571 901C553.7 901 536.3 901 519 901C501.7 901 484.3 901 467 901C449.7 901 432.3 901 415 901C397.7 901 380.3 901 363.2 901C346 901 329 901 311.8 901C294.7 901 277.3 901 260 901C242.7 901 225.3 901 208 901C190.7 901 173.3 901 156 901C138.7 901 121.3 901 104 901C86.7 901 69.3 901 52 901C34.7 901 17.3 901 8.7 901L0 901Z" fill="#8f57a8"></path><path d="M0 754L8.7 759.5C17.3 765 34.7 776 52 780.3C69.3 784.7 86.7 782.3 104 781.5C121.3 780.7 138.7 781.3 156 782.7C173.3 784 190.7 786 208 776.8C225.3 767.7 242.7 747.3 260 745.3C277.3 743.3 294.7 759.7 311.8 762.8C329 766 346 756 363.2 751.8C380.3 747.7 397.7 749.3 415 749.3C432.3 749.3 449.7 747.7 467 751C484.3 754.3 501.7 762.7 519 758.7C536.3 754.7 553.7 738.3 571 736.2C588.3 734 605.7 746 623 752.7C640.3 759.3 657.7 760.7 666.3 761.3L675 762L675 901L666.3 901C657.7 901 640.3 901 623 901C605.7 901 588.3 901 571 901C553.7 901 536.3 901 519 901C501.7 901 484.3 901 467 901C449.7 901 432.3 901 415 901C397.7 901 380.3 901 363.2 901C346 901 329 901 311.8 901C294.7 901 277.3 901 260 901C242.7 901 225.3 901 208 901C190.7 901 173.3 901 156 901C138.7 901 121.3 901 104 901C86.7 901 69.3 901 52 901C34.7 901 17.3 901 8.7 901L0 901Z" fill="#8c52a5"></path><path d="M0 802L8.7 800.3C17.3 798.7 34.7 795.3 52 789.3C69.3 783.3 86.7 774.7 104 772.2C121.3 769.7 138.7 773.3 156 774.2C173.3 775 190.7 773 208 775.2C225.3 777.3 242.7 783.7 260 781.8C277.3 780 294.7 770 311.8 773.3C329 776.7 346 793.3 363.2 798.3C380.3 803.3 397.7 796.7 415 793.8C432.3 791 449.7 792 467 796.7C484.3 801.3 501.7 809.7 519 810.7C536.3 811.7 553.7 805.3 571 805.3C588.3 805.3 605.7 811.7 623 811.2C640.3 810.7 657.7 803.3 666.3 799.7L675 796L675 901L666.3 901C657.7 901 640.3 901 623 901C605.7 901 588.3 901 571 901C553.7 901 536.3 901 519 901C501.7 901 484.3 901 467 901C449.7 901 432.3 901 415 901C397.7 901 380.3 901 363.2 901C346 901 329 901 311.8 901C294.7 901 277.3 901 260 901C242.7 901 225.3 901 208 901C190.7 901 173.3 901 156 901C138.7 901 121.3 901 104 901C86.7 901 69.3 901 52 901C34.7 901 17.3 901 8.7 901L0 901Z" fill="#894ea3"></path><path d="M0 812L8.7 814.8C17.3 817.7 34.7 823.3 52 824.7C69.3 826 86.7 823 104 819.2C121.3 815.3 138.7 810.7 156 814C173.3 817.3 190.7 828.7 208 834.8C225.3 841 242.7 842 260 842.5C277.3 843 294.7 843 311.8 841.7C329 840.3 346 837.7 363.2 834.7C380.3 831.7 397.7 828.3 415 829.3C432.3 830.3 449.7 835.7 467 838.2C484.3 840.7 501.7 840.3 519 838.3C536.3 836.3 553.7 832.7 571 832.3C588.3 832 605.7 835 623 833C640.3 831 657.7 824 666.3 820.5L675 817L675 901L666.3 901C657.7 901 640.3 901 623 901C605.7 901 588.3 901 571 901C553.7 901 536.3 901 519 901C501.7 901 484.3 901 467 901C449.7 901 432.3 901 415 901C397.7 901 380.3 901 363.2 901C346 901 329 901 311.8 901C294.7 901 277.3 901 260 901C242.7 901 225.3 901 208 901C190.7 901 173.3 901 156 901C138.7 901 121.3 901 104 901C86.7 901 69.3 901 52 901C34.7 901 17.3 901 8.7 901L0 901Z" fill="#8649a0"></path></svg>