<svg id="visual" viewBox="0 0 675 900" width="675" height="900" xmlns="http://www.w3.org/2000/svg" xmlns:xlink="http://www.w3.org/1999/xlink" version="1.1"><path d="M0 600L75 542L150 473L225 511L300 568L375 542L450 560L525 556L600 521L675 468L675 901L600 901L525 901L450 901L375 901L300 901L225 901L150 901L75 901L0 901Z" fill="#aa5657"></path><path d="M0 621L75 512L150 628L225 618L300 599L375 605L450 536L525 607L600 567L675 612L675 901L600 901L525 901L450 901L375 901L300 901L225 901L150 901L75 901L0 901Z" fill="#a74f4f"></path><path d="M0 571L75 562L150 638L225 641L300 664L375 558L450 565L525 572L600 663L675 620L675 901L600 901L525 901L450 901L375 901L300 901L225 901L150 901L75 901L0 901Z" fill="#a34848"></path><path d="M0 619L75 584L150 585L225 604L300 596L375 685L450 677L525 605L600 611L675 678L675 901L600 901L525 901L450 901L375 901L300 901L225 901L150 901L75 901L0 901Z" fill="#a04140"></path><path d="M0 638L75 679L150 638L225 632L300 656L375 705L450 667L525 666L600 673L675 671L675 901L600 901L525 901L450 901L375 901L300 901L225 901L150 901L75 901L0 901Z" fill="#9c3a38"></path><path d="M0 665L75 706L150 729L225 673L300 687L375 660L450 719L525 727L600 734L675 709L675 901L600 901L525 901L450 901L375 901L300 901L225 901L150 901L75 901L0 901Z" fill="#983230"></path><path d="M0 717L75 756L150 709L225 771L300 751L375 769L450 702L525 750L600 720L675 772L675 901L600 901L525 901L450 901L375 901L300 901L225 901L150 901L75 901L0 901Z" fill="#942b28"></path><path d="M0 779L75 764L150 793L225 765L300 789L375 798L450 774L525 779L600 766L675 788L675 901L600 901L525 901L450 901L375 901L300 901L225 901L150 901L75 901L0 901Z" fill="#8f2220"></path><path d="M0 815L75 827L150 805L225 787L300 819L375 787L450 791L525 818L600 828L675 799L675 901L600 901L525 901L450 901L375 901L300 901L225 901L150 901L75 901L0 901Z" fill="#8b1918"></path><path d="M0 836L75 840L150 842L225 836L300 826L375 837L450 835L525 845L600 846L675 827L675 901L600 901L525 901L450 901L375 901L300 901L225 901L150 901L75 901L0 901Z" fill="#860e10"></path></svg>