<svg id="visual" viewBox="0 0 675 900" width="675" height="900" xmlns="http://www.w3.org/2000/svg" xmlns:xlink="http://www.w3.org/1999/xlink" version="1.1"><path d="M0 624L9.3 625C18.7 626 37.3 628 56.2 630C75 632 94 634 112.8 640.5C131.7 647 150.3 658 169 659.8C187.7 661.7 206.3 654.3 225 649.7C243.7 645 262.3 643 281.2 641.3C300 639.7 319 638.3 337.8 634.7C356.7 631 375.3 625 394 633.8C412.7 642.7 431.3 666.3 450 671.5C468.7 676.7 487.3 663.3 506.2 654.7C525 646 544 642 562.8 648.3C581.7 654.7 600.3 671.3 619 666.2C637.7 661 656.3 634 665.7 620.5L675 607L675 901L665.7 901C656.3 901 637.7 901 619 901C600.3 901 581.7 901 562.8 901C544 901 525 901 506.2 901C487.3 901 468.7 901 450 901C431.3 901 412.7 901 394 901C375.3 901 356.7 901 337.8 901C319 901 300 901 281.2 901C262.3 901 243.7 901 225 901C206.3 901 187.7 901 169 901C150.3 901 131.7 901 112.8 901C94 901 75 901 56.2 901C37.3 901 18.7 901 9.3 901L0 901Z" fill="#b691c6"></path><path d="M0 719L9.3 706.2C18.7 693.3 37.3 667.7 56.2 670.5C75 673.3 94 704.7 112.8 707.3C131.7 710 150.3 684 169 680C187.7 676 206.3 694 225 702.3C243.7 710.7 262.3 709.3 281.2 704.3C300 699.3 319 690.7 337.8 690.5C356.7 690.3 375.3 698.7 394 706.3C412.7 714 431.3 721 450 723.7C468.7 726.3 487.3 724.7 506.2 713.2C525 701.7 544 680.3 562.8 669.5C581.7 658.7 600.3 658.3 619 670C637.7 681.7 656.3 705.3 665.7 717.2L675 729L675 901L665.7 901C656.3 901 637.7 901 619 901C600.3 901 581.7 901 562.8 901C544 901 525 901 506.2 901C487.3 901 468.7 901 450 901C431.3 901 412.7 901 394 901C375.3 901 356.7 901 337.8 901C319 901 300 901 281.2 901C262.3 901 243.7 901 225 901C206.3 901 187.7 901 169 901C150.3 901 131.7 901 112.8 901C94 901 75 901 56.2 901C37.3 901 18.7 901 9.3 901L0 901Z" fill="#ac83be"></path><path d="M0 723L9.3 721.3C18.7 719.7 37.3 716.3 56.2 713.2C75 710 94 707 112.8 706.8C131.7 706.7 150.3 709.3 169 717.3C187.7 725.3 206.3 738.7 225 741.7C243.7 744.7 262.3 737.3 281.2 736.5C300 735.7 319 741.3 337.8 734.2C356.7 727 375.3 707 394 704C412.7 701 431.3 715 450 719.5C468.7 724 487.3 719 506.2 724.5C525 730 544 746 562.8 747.5C581.7 749 600.3 736 619 727.7C637.7 719.3 656.3 715.7 665.7 713.8L675 712L675 901L665.7 901C656.3 901 637.7 901 619 901C600.3 901 581.7 901 562.8 901C544 901 525 901 506.2 901C487.3 901 468.7 901 450 901C431.3 901 412.7 901 394 901C375.3 901 356.7 901 337.8 901C319 901 300 901 281.2 901C262.3 901 243.7 901 225 901C206.3 901 187.7 901 169 901C150.3 901 131.7 901 112.8 901C94 901 75 901 56.2 901C37.3 901 18.7 901 9.3 901L0 901Z" fill="#a374b7"></path><path d="M0 742L9.3 741.5C18.7 741 37.3 740 56.2 747.7C75 755.3 94 771.7 112.8 771.2C131.7 770.7 150.3 753.3 169 744.2C187.7 735 206.3 734 225 739.5C243.7 745 262.3 757 281.2 763.2C300 769.3 319 769.7 337.8 771C356.7 772.3 375.3 774.7 394 771.7C412.7 768.7 431.3 760.3 450 755.7C468.7 751 487.3 750 506.2 750C525 750 544 751 562.8 756.7C581.7 762.3 600.3 772.7 619 770C637.7 767.3 656.3 751.7 665.7 743.8L675 736L675 901L665.7 901C656.3 901 637.7 901 619 901C600.3 901 581.7 901 562.8 901C544 901 525 901 506.2 901C487.3 901 468.7 901 450 901C431.3 901 412.7 901 394 901C375.3 901 356.7 901 337.8 901C319 901 300 901 281.2 901C262.3 901 243.7 901 225 901C206.3 901 187.7 901 169 901C150.3 901 131.7 901 112.8 901C94 901 75 901 56.2 901C37.3 901 18.7 901 9.3 901L0 901Z" fill="#9966af"></path><path d="M0 774L9.3 779C18.7 784 37.3 794 56.2 797.7C75 801.3 94 798.7 112.8 797.7C131.7 796.7 150.3 797.3 169 799C187.7 800.7 206.3 803.3 225 801C243.7 798.7 262.3 791.3 281.2 790.3C300 789.3 319 794.7 337.8 793.8C356.7 793 375.3 786 394 787C412.7 788 431.3 797 450 804.2C468.7 811.3 487.3 816.7 506.2 816.5C525 816.3 544 810.7 562.8 803.5C581.7 796.3 600.3 787.7 619 784.5C637.7 781.3 656.3 783.7 665.7 784.8L675 786L675 901L665.7 901C656.3 901 637.7 901 619 901C600.3 901 581.7 901 562.8 901C544 901 525 901 506.2 901C487.3 901 468.7 901 450 901C431.3 901 412.7 901 394 901C375.3 901 356.7 901 337.8 901C319 901 300 901 281.2 901C262.3 901 243.7 901 225 901C206.3 901 187.7 901 169 901C150.3 901 131.7 901 112.8 901C94 901 75 901 56.2 901C37.3 901 18.7 901 9.3 901L0 901Z" fill="#9058a8"></path><path d="M0 819L9.3 824.7C18.7 830.3 37.3 841.7 56.2 846.2C75 850.7 94 848.3 112.8 843C131.7 837.7 150.3 829.3 169 825.7C187.7 822 206.3 823 225 826.5C243.7 830 262.3 836 281.2 835.7C300 835.3 319 828.7 337.8 825C356.7 821.3 375.3 820.7 394 821.3C412.7 822 431.3 824 450 828C468.7 832 487.3 838 506.2 838C525 838 544 832 562.8 827.3C581.7 822.7 600.3 819.3 619 819.3C637.7 819.3 656.3 822.7 665.7 824.3L675 826L675 901L665.7 901C656.3 901 637.7 901 619 901C600.3 901 581.7 901 562.8 901C544 901 525 901 506.2 901C487.3 901 468.7 901 450 901C431.3 901 412.7 901 394 901C375.3 901 356.7 901 337.8 901C319 901 300 901 281.2 901C262.3 901 243.7 901 225 901C206.3 901 187.7 901 169 901C150.3 901 131.7 901 112.8 901C94 901 75 901 56.2 901C37.3 901 18.7 901 9.3 901L0 901Z" fill="#8649a0"></path></svg>