<svg id="visual" viewBox="0 0 540 960" width="540" height="960" xmlns="http://www.w3.org/2000/svg" xmlns:xlink="http://www.w3.org/1999/xlink" version="1.1"><path d="M0 548L7.5 549.5C15 551 30 554 45 557C60 560 75 563 90 572.8C105 582.7 120 599.3 135 602.2C150 605 165 594 180 587C195 580 210 577 225 574.5C240 572 255 570 270 564.5C285 559 300 550 315 563.2C330 576.3 345 611.7 360 619.5C375 627.3 390 607.7 405 594.7C420 581.7 435 575.3 450 584.7C465 594 480 619 495 611.3C510 603.7 525 563.3 532.5 543.2L540 523L540 961L532.5 961C525 961 510 961 495 961C480 961 465 961 450 961C435 961 420 961 405 961C390 961 375 961 360 961C345 961 330 961 315 961C300 961 285 961 270 961C255 961 240 961 225 961C210 961 195 961 180 961C165 961 150 961 135 961C120 961 105 961 90 961C75 961 60 961 45 961C30 961 15 961 7.5 961L0 961Z" fill="#b691c6"></path><path d="M0 690L7.5 670.8C15 651.7 30 613.3 45 617.5C60 621.7 75 668.3 90 672.3C105 676.3 120 637.7 135 631.8C150 626 165 653 180 665.3C195 677.7 210 675.3 225 667.8C240 660.3 255 647.7 270 647.5C285 647.3 300 659.7 315 671C330 682.3 345 692.7 360 696.8C375 701 390 699 405 682C420 665 435 633 450 616.7C465 600.3 480 599.7 495 617C510 634.3 525 669.7 532.5 687.3L540 705L540 961L532.5 961C525 961 510 961 495 961C480 961 465 961 450 961C435 961 420 961 405 961C390 961 375 961 360 961C345 961 330 961 315 961C300 961 285 961 270 961C255 961 240 961 225 961C210 961 195 961 180 961C165 961 150 961 135 961C120 961 105 961 90 961C75 961 60 961 45 961C30 961 15 961 7.5 961L0 961Z" fill="#ac83be"></path><path d="M0 696L7.5 693.5C15 691 30 686 45 681.3C60 676.7 75 672.3 90 672.2C105 672 120 676 135 688C150 700 165 720 180 724.3C195 728.7 210 717.3 225 716C240 714.7 255 723.3 270 712.8C285 702.3 300 672.7 315 668.2C330 663.7 345 684.3 360 691C375 697.7 390 690.3 405 698.5C420 706.7 435 730.3 450 732.7C465 735 480 716 495 703.7C510 691.3 525 685.7 532.5 682.8L540 680L540 961L532.5 961C525 961 510 961 495 961C480 961 465 961 450 961C435 961 420 961 405 961C390 961 375 961 360 961C345 961 330 961 315 961C300 961 285 961 270 961C255 961 240 961 225 961C210 961 195 961 180 961C165 961 150 961 135 961C120 961 105 961 90 961C75 961 60 961 45 961C30 961 15 961 7.5 961L0 961Z" fill="#a374b7"></path><path d="M0 725L7.5 724.2C15 723.3 30 721.7 45 733C60 744.3 75 768.7 90 768C105 767.3 120 741.7 135 727.8C150 714 165 712 180 720C195 728 210 746 225 755.5C240 765 255 766 270 768.2C285 770.3 300 773.7 315 769C330 764.3 345 751.7 360 744.7C375 737.7 390 736.3 405 736.3C420 736.3 435 737.7 450 746.2C465 754.7 480 770.3 495 766.5C510 762.7 525 739.3 532.5 727.7L540 716L540 961L532.5 961C525 961 510 961 495 961C480 961 465 961 450 961C435 961 420 961 405 961C390 961 375 961 360 961C345 961 330 961 315 961C300 961 285 961 270 961C255 961 240 961 225 961C210 961 195 961 180 961C165 961 150 961 135 961C120 961 105 961 90 961C75 961 60 961 45 961C30 961 15 961 7.5 961L0 961Z" fill="#9966af"></path><path d="M0 772L7.5 779.3C15 786.7 30 801.3 45 806.8C60 812.3 75 808.7 90 807.3C105 806 120 807 135 809.5C150 812 165 816 180 812.5C195 809 210 798 225 796.5C240 795 255 803 270 801.8C285 800.7 300 790.3 315 792C330 793.7 345 807.3 360 818.2C375 829 390 837 405 836.7C420 836.3 435 827.7 450 816.8C465 806 480 793 495 788.2C510 783.3 525 786.7 532.5 788.3L540 790L540 961L532.5 961C525 961 510 961 495 961C480 961 465 961 450 961C435 961 420 961 405 961C390 961 375 961 360 961C345 961 330 961 315 961C300 961 285 961 270 961C255 961 240 961 225 961C210 961 195 961 180 961C165 961 150 961 135 961C120 961 105 961 90 961C75 961 60 961 45 961C30 961 15 961 7.5 961L0 961Z" fill="#9058a8"></path><path d="M0 839L7.5 847.5C15 856 30 873 45 879.7C60 886.3 75 882.7 90 874.7C105 866.7 120 854.3 135 849C150 843.7 165 845.3 180 850.7C195 856 210 865 225 864.5C240 864 255 854 270 848.5C285 843 300 842 315 843C330 844 345 847 360 853C375 859 390 868 405 868C420 868 435 859 450 852C465 845 480 840 495 839.8C510 839.7 525 844.3 532.5 846.7L540 849L540 961L532.5 961C525 961 510 961 495 961C480 961 465 961 450 961C435 961 420 961 405 961C390 961 375 961 360 961C345 961 330 961 315 961C300 961 285 961 270 961C255 961 240 961 225 961C210 961 195 961 180 961C165 961 150 961 135 961C120 961 105 961 90 961C75 961 60 961 45 961C30 961 15 961 7.5 961L0 961Z" fill="#8649a0"></path></svg>