<?xml version="1.0" standalone="no"?>
<!DOCTYPE svg PUBLIC "-//W3C//DTD SVG 20010904//EN"
 "http://www.w3.org/TR/2001/REC-SVG-20010904/DTD/svg10.dtd">
<svg version="1.0" xmlns="http://www.w3.org/2000/svg"
 width="900.000000pt" height="600.000000pt" viewBox="0 0 900.000000 600.000000"
 preserveAspectRatio="xMidYMid meet">
<metadata>
Created by potrace 1.10, written by Peter Selinger 2001-2011
</metadata>
<g transform="translate(0.000000,600.000000) scale(0.100000,-0.100000)"
fill="#8649a0" stroke="none">
<path d="M6329 3374 c-19 -20 -47 -43 -64 -51 -16 -9 -41 -28 -54 -42 -30 -32
-149 -111 -167 -111 -22 0 -89 -39 -114 -65 -13 -14 -28 -25 -34 -25 -12 0
-77 -72 -116 -129 -14 -20 -39 -42 -56 -49 -16 -8 -40 -29 -53 -48 -13 -18
-33 -36 -45 -40 -11 -3 -43 -30 -71 -60 -47 -50 -119 -93 -157 -94 -9 0 -31
-20 -49 -45 -18 -24 -40 -47 -49 -50 -9 -3 -23 -20 -31 -38 -8 -18 -28 -39
-48 -49 -19 -10 -39 -24 -43 -33 -5 -8 -14 -15 -19 -15 -15 0 -69 62 -69 80
-1 31 -44 58 -100 63 -121 10 -187 48 -253 141 -9 14 -33 29 -52 35 -18 5 -46
21 -62 35 -35 33 -43 32 -80 -1 -17 -16 -48 -44 -70 -63 -21 -19 -42 -43 -46
-53 -4 -9 -19 -22 -33 -28 -15 -5 -32 -16 -38 -23 -6 -8 -31 -17 -56 -20 -45
-6 -45 -6 -66 36 -15 29 -31 45 -53 53 -17 5 -42 23 -55 39 -21 27 -28 29 -83
28 -72 -1 -125 -26 -182 -84 l-39 -41 -80 62 c-45 33 -90 61 -101 61 -11 0
-27 13 -38 30 -9 17 -21 30 -25 30 -5 0 -13 11 -18 25 -8 21 -14 24 -34 19
-28 -7 -37 5 -46 55 -3 24 -13 39 -30 48 -22 11 -27 10 -41 -9 -20 -26 -41
-15 -33 18 5 21 1 26 -30 39 -19 8 -56 15 -81 15 -26 0 -56 5 -68 12 -12 7
-47 15 -77 18 -48 4 -57 9 -68 33 -15 31 -69 60 -89 48 -7 -3 -31 -5 -52 -3
-31 3 -42 9 -47 26 -10 33 -45 66 -70 66 -13 0 -26 5 -29 10 -9 14 -28 12 -51
-5 -19 -15 -19 -15 0 -30 29 -22 26 -63 -7 -96 -15 -16 -27 -36 -25 -46 2 -13
-4 -18 -22 -18 -18 0 -25 5 -25 20 0 31 -39 31 -59 1 -13 -20 -20 -24 -34 -17
-9 5 -25 12 -34 15 -10 3 -18 14 -18 25 0 10 -10 25 -22 33 -33 21 -149 61
-156 54 -8 -8 34 -46 51 -46 17 0 37 -20 37 -39 0 -8 7 -23 16 -33 16 -16 16
-18 0 -24 -9 -3 -27 1 -39 9 -13 8 -34 17 -48 19 -13 1 -24 10 -24 18 -1 24
-15 40 -35 40 -22 0 -80 55 -80 76 0 8 7 14 15 14 20 0 19 7 -5 37 -11 14 -20
35 -20 47 0 41 -14 50 -50 32 -18 -9 -39 -16 -45 -16 -19 0 -85 -78 -85 -100
0 -13 10 -22 32 -28 22 -5 37 -19 51 -45 15 -30 22 -35 37 -27 14 8 22 3 41
-25 20 -30 28 -34 52 -29 30 6 37 -9 10 -25 -30 -17 0 -34 67 -39 33 -2 63 -8
66 -13 9 -14 68 -10 91 6 18 13 40 14 117 9 83 -6 96 -10 102 -27 3 -11 0 -25
-8 -34 -13 -12 -16 -12 -27 1 -11 14 -17 12 -43 -14 -22 -22 -39 -30 -65 -30
-28 0 -34 -3 -29 -16 3 -9 6 -19 6 -24 0 -5 8 -10 17 -12 10 -2 -3 -7 -29 -12
-26 -4 -49 -13 -52 -21 -3 -8 -12 -15 -21 -15 -21 0 -19 -16 5 -33 11 -8 17
-17 13 -20 -10 -10 38 -57 50 -50 18 11 108 9 115 -2 4 -5 23 -18 42 -28 56
-29 92 -51 112 -69 10 -10 26 -18 36 -18 10 0 22 -3 26 -7 4 -4 17 -8 29 -8
26 0 36 -37 15 -54 -7 -6 -30 -25 -51 -42 l-38 -32 -29 31 c-27 30 -50 41 -50
25 0 -5 14 -21 30 -37 17 -16 30 -33 30 -37 0 -4 10 -9 23 -11 30 -4 26 -19
-12 -42 -25 -14 -34 -16 -46 -6 -25 21 -35 7 -18 -28 20 -41 12 -49 -33 -33
-27 10 -38 10 -49 1 -21 -17 -18 -38 5 -45 11 -3 20 -11 20 -16 0 -15 -36 -10
-50 6 -7 8 -18 15 -24 15 -6 0 -19 8 -28 19 -8 10 -20 20 -24 22 -15 7 -54 67
-54 84 0 19 34 20 50 0 7 -8 22 -15 33 -15 11 0 25 -7 32 -17 16 -21 43 -11
55 22 5 14 17 28 25 31 22 9 19 21 -22 74 -50 62 -106 96 -155 91 -32 -2 -38
0 -38 16 0 23 -68 59 -83 44 -16 -16 -34 -2 -30 23 3 13 0 27 -6 30 -6 4 -11
16 -11 27 0 11 -11 24 -24 30 -14 7 -39 31 -56 56 -30 41 -33 43 -50 28 -16
-15 -18 -15 -24 0 -3 9 -6 23 -6 31 0 17 -29 60 -83 123 -20 24 -37 48 -37 52
0 19 29 8 52 -19 33 -39 88 -77 88 -60 -1 17 -15 35 -68 81 -38 34 -47 37 -80
31 -20 -3 -41 -10 -47 -15 -5 -5 -22 -9 -37 -9 -33 0 -78 -21 -97 -44 -23 -28
-64 -19 -112 24 -24 23 -60 50 -79 61 -19 10 -43 25 -52 31 -9 7 -21 9 -25 4
-4 -4 0 -14 11 -21 16 -13 12 -17 -55 -49 -41 -19 -91 -37 -111 -41 -27 -5
-38 -13 -40 -29 -3 -24 -43 -35 -62 -16 -8 8 -7 14 5 23 9 7 20 28 24 47 9 42
31 70 57 70 22 0 126 56 152 83 15 15 16 23 8 42 -8 17 -7 28 4 44 9 12 13 29
10 39 -4 12 5 27 29 46 19 16 35 33 35 38 0 27 -70 -13 -140 -80 -14 -14 -34
-29 -45 -34 -27 -12 -60 -31 -76 -45 -8 -5 -26 -13 -41 -17 -27 -6 -95 -58
-190 -148 -32 -29 -79 -62 -105 -72 -27 -11 -68 -35 -92 -53 -24 -18 -51 -33
-59 -33 -14 0 -79 -43 -92 -61 -17 -23 -158 -129 -172 -129 -9 0 -40 -5 -68
-11 -45 -10 -54 -15 -66 -45 -8 -19 -18 -34 -22 -34 -4 0 -50 -31 -101 -69
-123 -91 -173 -104 -269 -73 -37 12 -75 22 -84 22 -17 0 -18 -66 -18 -1245 l0
-1245 4500 0 4500 0 0 775 c0 682 -2 775 -15 775 -8 0 -15 5 -15 10 0 6 7 10
15 10 13 0 15 27 15 185 0 158 -2 185 -15 185 -8 0 -15 5 -15 10 0 6 7 10 15
10 13 0 15 21 15 133 l0 133 -29 11 c-23 8 -28 15 -24 31 3 14 -2 24 -19 33
-12 7 -50 36 -83 64 -69 60 -94 75 -127 74 -13 0 -54 2 -93 4 -61 3 -74 0
-105 -21 -19 -13 -34 -28 -32 -33 1 -5 -10 -14 -25 -20 -21 -8 -28 -7 -35 6
-12 21 -21 19 -56 -12 -16 -16 -45 -35 -63 -44 -95 -46 -129 -65 -129 -71 0
-18 55 -21 83 -5 19 12 27 13 25 5 -8 -24 -52 -39 -98 -33 -31 3 -52 0 -65 -9
-20 -14 -54 -19 -105 -17 -21 1 -26 6 -25 28 0 14 -6 28 -12 30 -8 3 -13 -4
-13 -16 0 -34 -42 -26 -81 15 -19 20 -42 43 -51 52 -10 9 -18 20 -18 24 0 14
28 9 33 -5 6 -16 96 -61 105 -53 3 3 -2 14 -11 24 -10 10 -17 23 -17 29 0 6
-11 21 -25 34 -13 13 -25 34 -25 47 0 15 -6 22 -18 22 -11 0 -32 11 -48 25
-21 18 -41 25 -69 25 -23 0 -46 5 -53 12 -7 7 -12 8 -12 2 0 -5 5 -15 11 -21
7 -7 9 -19 5 -28 -5 -15 -9 -14 -30 6 -19 18 -23 30 -19 56 5 29 2 35 -26 50
-17 10 -34 29 -38 43 -3 14 -19 38 -35 54 -35 37 -36 56 -3 56 13 0 29 8 34
18 8 15 4 23 -20 41 -29 22 -31 22 -44 4 -13 -17 -14 -17 -21 1 -4 11 0 30 10
48 23 37 15 61 -18 52 -13 -3 -27 -1 -31 6 -4 6 -15 8 -26 5 -12 -4 -21 -1
-25 9 -4 11 -18 13 -53 11 -68 -6 -101 -21 -101 -45 0 -11 -5 -29 -12 -39 -9
-15 -8 -24 5 -45 10 -14 24 -26 32 -26 25 0 17 -27 -14 -49 -27 -19 -29 -20
-24 -3 8 30 -18 44 -58 30 -19 -6 -38 -18 -42 -25 -6 -9 -18 -13 -32 -9 -18 5
-25 1 -30 -14 -4 -11 -20 -27 -36 -35 -16 -9 -29 -20 -29 -25 0 -6 -9 -10 -20
-10 -10 0 -30 -11 -44 -25 -30 -30 -51 -31 -94 -5 -34 21 -62 26 -62 11 0 -5
9 -11 19 -14 14 -3 18 -11 14 -26 -4 -15 -1 -21 11 -21 9 0 16 -7 16 -15 0
-20 -37 -38 -67 -32 -22 4 -23 2 -18 -24 6 -25 3 -29 -21 -35 -19 -5 -38 -2
-57 9 -17 10 -38 15 -52 11 -20 -5 -26 0 -38 28 -7 18 -17 57 -20 87 -4 33
-14 62 -26 75 -31 34 -51 105 -51 188 0 42 -4 88 -10 103 -14 38 1 97 29 112
46 22 49 53 6 53 -18 0 -27 9 -40 45 -10 24 -26 47 -36 50 -11 4 -19 15 -19
25 0 19 -19 30 -52 30 -19 0 -19 1 -4 24 12 19 14 39 9 86 -3 33 -9 63 -13 65
-4 2 -22 -12 -41 -31z m19 -200 c-4 -23 -26 -30 -34 -10 -8 20 15 51 29 37 5
-5 7 -17 5 -27z m-3338 -139 c19 -23 4 -45 -29 -45 -36 0 -46 13 -31 40 13 24
42 26 60 5z m130 -40 c0 -8 4 -15 9 -15 5 0 11 -12 13 -27 2 -20 14 -32 45
-47 38 -20 40 -23 29 -44 -6 -12 -22 -29 -34 -37 -20 -15 -22 -14 -42 25 -26
50 -50 53 -50 6 0 -40 -14 -53 -36 -35 -38 31 -36 57 6 110 22 28 40 57 40 65
0 8 5 14 10 14 6 0 10 -7 10 -15z m-1195 -19 c18 -13 18 -15 1 -70 -10 -31
-19 -56 -20 -56 -2 0 -17 20 -35 45 -32 44 -32 45 -14 70 20 28 41 31 68 11z
m795 -36 c0 -5 -12 -10 -26 -10 -14 0 -23 4 -19 10 3 6 15 10 26 10 10 0 19
-4 19 -10z m600 -21 c0 -5 13 -15 30 -20 16 -6 32 -20 36 -31 8 -27 -2 -34
-24 -15 -10 10 -26 17 -35 17 -19 0 -47 27 -47 46 0 8 9 14 20 14 11 0 20 -5
20 -11z m-1923 -14 c19 -8 48 -15 64 -15 16 0 29 -4 29 -10 0 -5 -4 -10 -10
-10 -23 0 15 -50 46 -60 24 -8 34 -18 34 -32 0 -12 8 -27 17 -34 29 -21 4 -30
-29 -11 -27 16 -33 16 -47 3 -9 -8 -29 -20 -45 -26 -27 -10 -28 -13 -24 -55 4
-34 2 -45 -8 -45 -8 0 -14 10 -14 25 0 18 -5 25 -20 25 -31 0 -36 -28 -11 -54
29 -31 11 -44 -32 -23 -60 28 -108 47 -119 47 -6 0 -20 7 -30 16 -16 16 -18
15 -24 -2 -3 -11 -10 -27 -15 -36 -12 -24 -11 -28 6 -28 25 0 65 -23 65 -38 0
-10 -5 -12 -17 -7 -10 4 -30 10 -45 13 -16 2 -28 8 -28 12 0 4 -11 11 -25 14
-32 8 -32 24 0 32 21 5 23 8 10 21 -8 8 -15 23 -15 33 0 9 -19 36 -41 59 -27
27 -41 50 -41 66 0 35 5 38 37 23 24 -11 29 -10 45 11 12 17 22 21 31 15 8 -5
21 -7 30 -6 9 2 33 -15 55 -36 50 -49 96 -69 129 -54 20 9 24 18 23 53 0 27
-7 48 -19 60 -19 19 -25 50 -12 62 9 9 8 9 50 -8z m671 -49 c3 -12 -1 -17 -10
-14 -7 3 -15 13 -16 22 -3 12 1 17 10 14 7 -3 15 -13 16 -22z m5253 -7 c9 -18
17 -20 55 -14 49 7 54 -1 30 -45 -10 -17 -11 -30 -5 -42 11 -21 -10 -34 -36
-24 -20 7 -19 36 1 36 8 0 13 4 10 9 -3 5 -15 7 -25 4 -16 -4 -19 -1 -14 16 4
17 0 22 -26 27 -24 5 -31 12 -31 30 0 30 25 32 41 3z m-5241 -59 c9 -17 8 -20
-10 -20 -13 0 -20 7 -20 20 0 11 4 20 10 20 5 0 14 -9 20 -20z m961 4 c9 -11
22 -14 45 -9 25 4 38 1 52 -13 14 -14 35 -19 95 -20 42 -1 79 3 82 8 8 13 122
13 130 1 3 -5 -2 -16 -10 -24 -17 -18 -20 -43 -5 -52 8 -5 7 -11 -1 -21 -12
-15 -30 -19 -27 -6 3 12 -13 52 -21 52 -4 0 -12 -5 -19 -12 -8 -8 -15 -8 -28
3 -14 11 -18 11 -30 -6 -8 -10 -14 -29 -14 -42 0 -13 -4 -23 -10 -23 -5 0 -10
-13 -10 -28 0 -39 -8 -44 -42 -26 -16 8 -38 12 -48 9 -13 -4 -20 -2 -20 7 0
21 -71 92 -111 111 -40 18 -49 33 -49 78 0 32 19 39 41 13z m-2015 -61 c27
-36 5 -117 -26 -98 -10 6 -8 12 8 24 28 22 13 61 -24 61 -22 0 -25 2 -14 15
17 20 40 19 56 -2z m1154 -5 c0 -16 -3 -19 -11 -11 -6 6 -8 16 -5 22 11 17 16
13 16 -11z m278 -6 c4 -25 -13 -30 -22 -6 -9 25 -7 36 7 32 6 -3 13 -14 15
-26z m-235 -36 c9 -7 15 -20 12 -28 -3 -8 1 -20 9 -27 17 -15 12 -66 -10 -92
-19 -21 -18 -59 1 -59 8 0 15 9 15 20 0 26 15 25 40 0 24 -24 17 -44 -11 -35
-11 4 -35 1 -55 -5 -26 -9 -47 -9 -87 0 -182 41 -187 42 -187 61 0 11 5 19 10
19 6 0 15 10 21 23 6 12 22 30 35 41 25 18 26 18 65 -14 81 -65 197 -40 132
28 -43 44 -55 61 -48 71 9 15 36 13 58 -3z m-486 -28 c91 -41 119 -92 34 -62
-67 23 -122 54 -116 64 9 14 49 12 82 -2z m-1017 -20 c6 -13 15 -31 22 -40 17
-24 6 -31 -26 -17 -19 9 -26 20 -26 39 0 24 7 40 17 40 2 0 8 -10 13 -22z
m3441 9 c-1 -12 -15 -9 -19 4 -3 6 1 10 8 8 6 -3 11 -8 11 -12z m-3231 -42
c-7 -9 -9 -26 -5 -45 7 -33 7 -34 -28 -21 -23 9 -24 12 -13 45 8 28 16 36 35
36 19 0 21 -2 11 -15z m2790 -15 c6 -11 8 -30 4 -44 -4 -16 -1 -27 10 -33 9
-5 19 -26 23 -46 5 -34 4 -37 -19 -37 -25 0 -66 37 -87 77 -15 29 -14 33 8 33
27 0 34 15 16 30 -20 16 -19 28 3 33 30 8 31 7 42 -13z m726 -2 c4 -6 -1 -17
-11 -24 -16 -12 -16 -16 9 -58 15 -25 40 -53 56 -61 18 -9 30 -24 30 -35 0
-10 5 -31 12 -45 15 -33 6 -40 -47 -37 -30 1 -56 -5 -80 -19 -44 -26 -78 -19
-101 19 -9 16 -29 37 -45 48 -16 10 -29 25 -29 32 0 16 10 15 29 -2 9 -7 28
-16 43 -20 21 -5 30 -2 38 14 6 11 17 20 25 20 17 0 20 26 5 35 -5 3 -10 21
-10 40 0 19 -4 37 -10 40 -15 9 -12 45 4 45 8 0 18 -4 21 -10 10 -16 22 -12
28 10 6 22 22 26 33 8z m-1386 -10 c0 -21 -43 -58 -66 -58 -23 0 -49 31 -37
44 4 3 21 4 38 0 24 -4 34 -2 38 10 7 19 27 22 27 4z m893 -103 c68 -63 31
-80 -70 -33 -78 36 -80 68 -3 68 26 0 45 -9 73 -35z m3143 -22 c-5 -12 -10
-13 -18 -5 -8 8 -8 15 3 28 15 18 25 4 15 -23z m-6236 -8 c0 -8 -4 -15 -10
-15 -5 0 -10 7 -10 15 0 8 5 15 10 15 6 0 10 -7 10 -15z m1020 -2 c2 -2 -1
-12 -7 -21 -8 -14 -7 -23 3 -36 15 -21 59 -46 80 -46 8 0 18 -8 21 -17 13 -33
78 -83 128 -99 77 -24 91 -33 114 -76 25 -48 25 -45 1 -51 -13 -3 -25 2 -34
14 -11 17 -14 18 -19 4 -12 -28 -60 -18 -90 20 -26 33 -67 48 -67 25 0 -5 7
-10 15 -10 8 0 15 -4 15 -10 0 -5 -5 -10 -11 -10 -18 0 -69 40 -69 54 0 8 -7
19 -15 26 -8 7 -15 26 -15 41 0 22 -6 32 -25 39 -13 5 -27 20 -31 34 -4 17
-17 30 -40 38 -25 9 -33 17 -29 29 3 9 -1 24 -10 32 -28 29 -18 39 33 31 26
-3 49 -8 52 -11z m2840 -82 c14 -11 21 -23 17 -28 -12 -12 -79 29 -88 55 -8
22 -8 22 19 7 15 -8 38 -23 52 -34z m1405 19 c3 -5 -6 -25 -22 -45 -25 -31
-30 -33 -48 -21 -11 7 -21 27 -23 45 -3 31 -3 31 42 31 25 0 48 -4 51 -10z
m-1230 -10 c3 -5 -1 -10 -9 -10 -8 0 -18 5 -21 10 -3 6 1 10 9 10 8 0 18 -4
21 -10z m-3772 -34 c25 -19 22 -40 -5 -32 -13 3 -26 6 -30 6 -5 0 -8 9 -8 20
0 23 17 25 43 6z m3530 -30 c12 -17 13 -26 4 -35 -8 -8 -8 -14 1 -23 17 -17
15 -35 -5 -42 -12 -5 -27 4 -50 28 -18 19 -42 38 -53 41 -25 8 -26 25 -2 25
10 0 27 7 38 15 28 21 50 18 67 -9z m2397 -25 c-9 -49 -32 -75 -73 -85 -20 -5
-29 -2 -34 10 -9 25 24 46 49 33 28 -15 41 1 28 35 -14 39 -13 44 13 48 12 2
23 4 24 3 1 0 -2 -20 -7 -44z m-5852 -6 c7 -14 24 -31 39 -38 33 -14 58 -36
50 -43 -3 -3 -13 -1 -24 4 -10 5 -31 14 -47 18 -33 10 -72 56 -62 73 12 19 32
12 44 -14z m5960 -2 c2 -8 -5 -13 -17 -13 -12 0 -21 6 -21 16 0 18 31 15 38
-3z m-3478 -27 c0 -13 7 -29 15 -36 21 -17 19 -30 -5 -30 -11 0 -38 -11 -59
-25 -21 -14 -53 -27 -72 -29 -43 -4 -89 -26 -89 -41 0 -6 -21 -22 -47 -34 -27
-12 -56 -26 -65 -32 -32 -17 -39 -11 -32 25 6 35 3 41 -38 87 -24 26 -23 46 4
60 18 10 24 8 35 -7 11 -15 17 -16 31 -6 50 35 95 52 140 52 27 0 52 3 56 8 7
6 85 28 114 31 6 0 12 -10 12 -23z m-442 -104 c2 -7 -7 -12 -22 -12 -27 0 -35
15 -13 23 17 7 30 3 35 -11z m645 -27 c1 -6 -10 -11 -25 -13 -31 -4 -39 14
-10 21 23 6 33 4 35 -8z m-1149 -34 c3 -5 -1 -12 -10 -15 -24 -9 -74 -7 -74 3
0 17 75 28 84 12z m196 -1 c0 -5 -7 -10 -15 -10 -8 0 -15 5 -15 10 0 6 7 10
15 10 8 0 15 -4 15 -10z m-201 -60 c16 -4 28 -16 31 -31 3 -13 16 -28 28 -34
21 -9 23 -16 26 -75 1 -20 6 -25 26 -24 14 1 33 4 42 8 12 6 17 2 20 -16 3
-20 8 -23 41 -20 39 3 47 -7 22 -28 -9 -8 -25 -10 -42 -5 -16 4 -42 8 -59 9
-17 1 -37 6 -45 13 -8 6 -33 14 -57 18 -26 4 -46 14 -52 25 -6 10 -19 21 -29
25 -21 6 -46 67 -38 89 7 18 -12 36 -40 36 -16 0 -21 4 -16 16 4 12 16 14 61
8 31 -4 67 -10 81 -14z m5113 -43 c25 -23 25 -24 6 -36 -33 -20 -6 -34 63 -34
33 1 66 6 72 12 6 6 24 11 39 11 16 0 43 7 60 16 24 13 36 14 49 5 12 -7 20
-7 24 -1 11 18 26 10 20 -10 -8 -25 26 -40 88 -40 38 0 39 -1 21 -15 -10 -8
-30 -15 -43 -15 -13 0 -29 -8 -36 -17 -7 -9 -32 -22 -56 -29 -42 -13 -45 -12
-71 13 -24 23 -37 27 -91 27 -45 1 -74 -5 -100 -19 -33 -17 -40 -18 -60 -5
-14 8 -44 13 -80 12 -46 -2 -66 2 -101 23 -62 36 -72 51 -47 64 11 6 43 16 73
22 29 6 58 15 63 19 9 7 37 14 71 19 6 0 22 -10 36 -22z m-4572 -12 c0 -8 -7
-15 -15 -15 -8 0 -15 7 -15 15 0 8 7 15 15 15 8 0 15 -7 15 -15z m3171 -14
c33 -26 17 -37 -25 -17 -19 9 -45 17 -58 17 -21 2 -15 4 53 18 4 0 17 -8 30
-18z m1901 -18 c27 -26 37 -53 20 -53 -11 0 -72 60 -72 71 0 17 24 9 52 -18z
m-3656 -15 c-16 -9 -46 -1 -46 12 0 13 34 17 48 6 11 -8 11 -11 -2 -18z m4254
12 c0 -15 -42 -39 -81 -46 -18 -4 -39 -10 -44 -15 -15 -11 -135 -29 -159 -24
-12 3 -58 9 -103 14 -65 7 -89 14 -112 34 -17 14 -27 28 -24 31 9 8 58 8 67
-1 12 -12 118 -35 161 -35 22 -1 63 7 90 17 44 16 114 29 183 34 12 0 22 -3
22 -9z m-4200 -10 c0 -5 -7 -10 -15 -10 -8 0 -15 5 -15 10 0 6 7 10 15 10 8 0
15 -4 15 -10z m-295 -20 c-3 -5 -17 -10 -31 -10 -13 0 -24 5 -24 10 0 6 14 10
31 10 17 0 28 -4 24 -10z m3865 -61 c0 -12 -47 -12 -54 0 -3 4 -3 10 0 13 7 8
54 -3 54 -13z m-1226 -41 c-57 -9 -62 -12 -68 -38 -5 -25 -11 -30 -51 -36 -47
-7 -101 8 -91 24 3 5 31 17 63 27 32 11 62 23 68 27 5 4 38 7 75 7 l65 -2 -61
-9z m1731 -78 c4 -6 -6 -10 -22 -10 -22 0 -25 2 -13 10 19 12 27 12 35 0z
m-1441 -56 c3 -9 4 -20 1 -24 -9 -15 -35 1 -35 21 0 23 25 25 34 3z m-912 -16
c-23 -8 -39 -8 -55 0 -19 9 -13 11 33 10 53 0 54 -1 22 -10z m982 -13 c19 -14
19 -15 -7 -15 -17 0 -27 5 -27 15 0 19 9 19 34 0z m-1179 -5 c4 -6 -7 -10 -27
-10 -25 0 -29 3 -18 10 19 13 37 13 45 0z m-1160 -47 c-24 -17 -35 -17 -35 1
0 8 8 16 18 19 27 6 37 -5 17 -20z m3685 -7 c0 -18 -17 -29 -30 -21 -8 5 -7
11 1 21 15 18 29 18 29 0z m-60 -4 c0 -10 -45 -32 -64 -32 -21 0 -40 27 -24
33 22 9 88 8 88 -1z m-133 -17 c-11 -7 -25 -11 -33 -8 -25 10 -15 23 19 23 30
-1 31 -2 14 -15z m-77 -10 c0 -19 -24 -29 -47 -20 -17 6 -17 7 1 21 26 18 46
18 46 -1z m-6426 -1251 c4 -9 4 -19 2 -21 -8 -8 -26 8 -26 23 0 19 16 18 24
-2z"/>
<path d="M1110 2776 c0 -8 5 -18 10 -21 6 -3 10 1 10 9 0 8 -4 18 -10 21 -5 3
-10 -1 -10 -9z"/>
<path d="M1420 2730 c0 -5 7 -10 15 -10 8 0 15 5 15 10 0 6 -7 10 -15 10 -8 0
-15 -4 -15 -10z"/>
<path d="M4410 2335 c0 -8 5 -15 10 -15 6 0 10 7 10 15 0 8 -4 15 -10 15 -5 0
-10 -7 -10 -15z"/>
<path d="M1970 2256 c0 -10 9 -16 21 -16 24 0 21 23 -4 28 -10 2 -17 -3 -17
-12z"/>
<path d="M4610 2286 c0 -10 9 -16 21 -16 24 0 21 23 -4 28 -10 2 -17 -3 -17
-12z"/>
<path d="M2718 1995 c-10 -11 4 -45 19 -45 9 0 13 8 11 22 -3 21 -19 34 -30
23z"/>
<path d="M2767 1943 c-27 -7 -19 -57 10 -61 17 -3 24 3 29 22 6 25 -1 47 -14
45 -4 -1 -15 -3 -25 -6z"/>
<path d="M7312 3206 c-26 -35 -37 -42 -57 -38 -14 2 -31 0 -38 -6 -7 -6 -18
-7 -26 -2 -22 13 -44 1 -30 -16 6 -8 18 -14 25 -14 8 0 14 -8 14 -19 0 -23 46
-55 67 -47 11 5 14 15 9 40 -9 47 7 53 53 21 34 -23 52 -28 108 -34 6 0 15
-10 18 -21 3 -11 13 -20 21 -20 11 0 14 15 14 61 0 51 -4 66 -26 92 -20 24
-33 31 -54 29 -16 -2 -31 1 -35 7 -12 20 -30 11 -63 -33z"/>
<path d="M6681 3196 c-15 -18 2 -56 24 -56 18 0 38 37 31 56 -7 18 -40 18 -55
0z"/>
<path d="M2647 3183 c-14 -13 -6 -43 14 -54 17 -9 23 -8 30 2 12 19 11 25 -7
43 -17 17 -27 20 -37 9z"/>
<path d="M7042 3178 c-16 -16 -15 -38 2 -38 28 0 46 12 46 31 0 22 -29 26 -48
7z"/>
<path d="M6577 3150 c-18 -21 -22 -40 -9 -40 12 1 52 38 52 49 0 18 -24 13
-43 -9z"/>
<path d="M7520 3126 c0 -30 68 -133 93 -142 9 -3 17 -12 17 -19 0 -17 17 -28
30 -20 13 8 -16 60 -52 90 -20 17 -28 34 -30 66 -3 40 -6 44 -30 47 -24 3 -28
0 -28 -22z"/>
<path d="M7614 3125 c-12 -30 5 -63 37 -74 42 -14 49 -14 49 4 0 13 -64 85
-76 85 -2 0 -7 -7 -10 -15z"/>
<path d="M7014 3114 c-3 -11 -10 -28 -16 -38 -9 -17 -7 -18 14 -13 12 4 29 7
36 7 18 0 14 25 -8 45 -19 17 -20 17 -26 -1z"/>
<path d="M6745 3093 c8 -32 13 -39 21 -30 10 9 -5 57 -17 57 -7 0 -9 -10 -4
-27z"/>
<path d="M6876 3037 c-11 -23 -24 -45 -29 -49 -11 -7 18 -78 32 -78 5 0 11 -9
14 -20 5 -21 37 -18 37 2 0 6 9 -1 21 -15 15 -21 19 -34 13 -62 -7 -41 3 -45
35 -11 19 20 22 30 14 53 -5 15 -22 35 -39 43 -66 35 -67 36 -60 64 4 17 13
26 26 26 11 0 20 2 20 5 0 17 -42 85 -53 85 -6 0 -21 -20 -31 -43z"/>
<path d="M6650 3040 c0 -11 5 -20 10 -20 6 0 16 -11 22 -25 9 -19 14 -22 25
-14 18 16 17 20 -12 52 -31 32 -45 34 -45 7z"/>
<path d="M7706 3008 c-3 -13 -6 -33 -6 -45 0 -29 38 -93 56 -93 26 0 27 28 2
62 -12 18 -23 46 -23 62 0 36 -20 45 -29 14z"/>
<path d="M7180 3010 c0 -13 28 -25 38 -16 3 4 0 11 -8 16 -20 13 -30 12 -30 0z"/>
<path d="M7105 2966 c-19 -14 -13 -36 9 -36 15 0 29 37 17 45 -5 2 -16 -2 -26
-9z"/>
<path d="M6982 2948 c3 -7 13 -15 22 -16 12 -3 17 1 14 10 -3 7 -13 15 -22 16
-12 3 -17 -1 -14 -10z"/>
<path d="M7283 2953 c-13 -2 -23 -11 -23 -19 0 -12 7 -14 33 -9 39 9 47 13 47
26 0 9 -17 10 -57 2z"/>
<path d="M8000 2927 c0 -9 9 -19 20 -22 11 -3 20 -13 20 -21 0 -8 4 -14 8 -14
4 0 16 -13 25 -30 10 -16 25 -30 33 -30 8 0 14 -4 14 -8 0 -5 17 -27 38 -49
34 -38 39 -40 57 -26 20 14 19 15 -10 39 -49 39 -59 53 -60 77 0 17 -5 21 -24
19 -13 -1 -31 4 -40 13 -48 45 -81 66 -81 52z"/>
<path d="M7044 2889 c-3 -6 -1 -16 5 -22 8 -8 11 -5 11 11 0 24 -5 28 -16 11z"/>
<path d="M7155 2890 c-7 -12 2 -30 16 -30 12 0 12 27 0 35 -5 3 -12 1 -16 -5z"/>
<path d="M6656 2855 c-4 -14 -13 -25 -21 -25 -16 0 -17 -11 -5 -50 7 -23 8
-24 15 -5 4 11 9 26 11 33 7 24 24 12 24 -17 0 -18 10 -41 24 -56 22 -23 26
-24 55 -12 31 13 31 13 9 24 -13 6 -30 14 -40 16 -9 3 -19 19 -23 36 -4 17
-11 31 -16 31 -5 0 -9 9 -9 19 0 30 -17 34 -24 6z"/>
<path d="M6802 2801 c4 -13 18 -16 19 -4 0 4 -5 9 -11 12 -7 2 -11 -2 -8 -8z"/>
<path d="M7620 2798 c0 -5 9 -23 21 -39 22 -31 18 -49 -9 -49 -12 0 -13 -3 -4
-12 7 -7 12 -21 12 -32 0 -26 85 -106 112 -106 16 0 19 4 14 23 -4 12 -9 34
-12 50 -4 15 -10 27 -15 27 -5 0 -9 11 -9 25 0 14 -8 33 -17 43 -10 11 -26 30
-36 44 -19 27 -57 44 -57 26z"/>
<path d="M7770 2795 c0 -8 12 -22 28 -32 15 -10 30 -22 34 -27 4 -6 10 -8 13
-4 3 3 -4 22 -16 42 -21 36 -59 50 -59 21z"/>
<path d="M7735 2740 c-3 -6 1 -13 9 -16 9 -3 16 -12 16 -20 0 -7 9 -18 20 -24
25 -14 25 -6 -1 36 -21 35 -33 41 -44 24z"/>
<path d="M7932 2698 c5 -15 28 -23 28 -10 0 5 -7 13 -16 16 -10 4 -14 1 -12
-6z"/>
<path d="M8154 2688 c-4 -6 2 -17 12 -25 18 -13 18 -15 2 -27 -10 -7 -18 -18
-18 -24 0 -11 38 -42 51 -42 10 0 18 39 9 45 -4 2 -10 23 -14 45 -6 39 -27 53
-42 28z"/>
<path d="M7880 2612 c0 -11 -3 -27 -6 -36 -4 -10 -1 -16 9 -16 8 0 18 -11 21
-25 8 -31 20 -32 40 -3 22 31 20 38 -8 38 -19 0 -25 6 -28 27 -4 31 -28 44
-28 15z"/>
<path d="M6627 2593 c-14 -13 -7 -31 18 -47 23 -15 24 -15 18 1 -11 30 -29 53
-36 46z"/>
<path d="M7980 2441 c-5 -11 -10 -37 -10 -58 0 -34 5 -41 39 -60 22 -13 52
-41 68 -63 32 -46 38 -48 47 -17 10 37 7 44 -29 83 -19 20 -35 42 -35 47 0 15
-51 87 -61 87 -5 0 -13 -9 -19 -19z"/>
</g>
</svg>
