<svg width="262" height="262" viewBox="0 0 262 262" fill="none" xmlns="http://www.w3.org/2000/svg">
<g filter="url(#filter0_dd_218_38)">
<path d="M256 125C256 194.036 200.036 250 131 250C61.9644 250 6 194.036 6 125C6 55.9644 61.9644 0 131 0C200.036 0 256 55.9644 256 125Z" fill="#FAF8EB"/>
<path d="M203.296 113.046C212.498 118.359 212.498 131.641 203.296 136.954L97.7042 197.917C88.5023 203.23 77 196.589 77 185.963L77 64.0367C77 53.4112 88.5023 46.7704 97.7042 52.0831L203.296 113.046Z" fill="#8EA8A0"/>
<path d="M100.523 121.986C100.992 121.986 101.757 122.089 102.817 122.295C103.032 122.333 103.211 122.352 103.351 122.352C103.511 122.352 103.82 122.267 104.28 122.098C104.496 122.014 104.679 121.972 104.829 121.972C105.26 121.972 105.696 122.248 106.137 122.802C106.494 123.243 106.784 123.726 107.01 124.251C107.235 124.776 107.347 125.231 107.347 125.616C107.347 125.991 107.216 126.305 106.953 126.559C106.691 126.803 106.362 126.925 105.968 126.925C105.64 126.925 105.345 126.845 105.082 126.685C104.829 126.526 104.416 126.174 103.844 125.63C103.243 125.048 102.746 124.758 102.352 124.758C102.09 124.758 101.86 124.856 101.663 125.053C101.475 125.241 101.381 125.466 101.381 125.729C101.381 126.188 101.822 126.62 102.704 127.023C104.289 127.736 105.504 128.514 106.348 129.359C107.061 130.072 107.418 130.944 107.418 131.976C107.418 133.28 106.845 134.368 105.701 135.24C104.716 136 103.511 136.38 102.085 136.38C101.719 136.38 101.053 136.319 100.087 136.197C99.177 136.094 98.6658 136.042 98.5532 136.042C98.4312 136.042 98.2905 136.056 98.1311 136.084C97.859 136.122 97.6621 136.141 97.5401 136.141C97.0992 136.141 96.7522 136.028 96.4989 135.803C96.1143 135.456 95.7578 134.912 95.4295 134.171C95.1012 133.42 94.9371 132.778 94.9371 132.243C94.9371 131.38 95.2748 130.949 95.9501 130.949C96.2128 130.949 96.452 131.038 96.6677 131.216C96.8929 131.385 97.3572 131.845 98.0607 132.595C98.4453 133.008 98.7642 133.294 99.0175 133.453C99.2708 133.603 99.5428 133.678 99.8336 133.678C100.143 133.678 100.392 133.599 100.579 133.439C100.767 133.27 100.861 133.05 100.861 132.778C100.861 132.356 100.5 131.971 99.7773 131.624C98.2671 130.883 97.1743 130.119 96.4989 129.331C95.8329 128.543 95.4999 127.633 95.4999 126.601C95.4999 125.485 95.8423 124.523 96.527 123.716C97.5026 122.563 98.8346 121.986 100.523 121.986Z" fill="white"/>
<path d="M117.07 125.672V130.428C117.07 130.991 117.206 131.451 117.478 131.807C117.759 132.163 118.116 132.342 118.547 132.342C118.913 132.342 119.396 132.173 119.997 131.835C120.137 131.751 120.278 131.708 120.419 131.708C120.644 131.708 120.85 131.845 121.038 132.117C121.225 132.389 121.319 132.684 121.319 133.003C121.319 133.585 121 134.143 120.362 134.677C119.03 135.812 117.417 136.38 115.522 136.38C114.021 136.38 112.816 135.958 111.906 135.114C110.996 134.26 110.541 133.139 110.541 131.751V125.25C110.541 125.034 110.513 124.903 110.457 124.856C110.41 124.8 110.279 124.772 110.063 124.772H108.614C108.342 124.772 108.168 124.73 108.093 124.645C108.018 124.551 107.98 124.34 107.98 124.012V123.393C107.99 123.111 108.098 122.905 108.304 122.774L114.748 118.721C114.908 118.637 115.105 118.595 115.339 118.595H116.479C116.714 118.595 116.868 118.651 116.943 118.764C117.028 118.867 117.07 119.078 117.07 119.397V121.296C117.07 121.578 117.112 121.761 117.197 121.845C117.29 121.929 117.483 121.972 117.774 121.972H120.377C120.724 121.972 120.949 122.037 121.052 122.169C121.155 122.291 121.207 122.558 121.207 122.971V123.801C121.207 124.251 121.141 124.565 121.01 124.744C120.878 124.912 120.639 124.997 120.292 124.997H117.745C117.483 124.997 117.304 125.044 117.211 125.138C117.117 125.231 117.07 125.41 117.07 125.672Z" fill="white"/>
<path d="M130.254 121.972C131.886 121.972 133.27 122.384 134.405 123.21C135.005 123.651 135.423 124.157 135.657 124.73C135.901 125.292 136.023 126.071 136.023 127.065L135.995 129.162C135.995 130.616 136.098 131.558 136.304 131.99C136.408 132.196 136.506 132.328 136.6 132.384C136.694 132.44 136.891 132.492 137.191 132.539C137.491 132.586 137.641 132.783 137.641 133.13C137.641 133.58 137.458 134.049 137.092 134.537C136.736 135.024 136.272 135.432 135.699 135.761C134.996 136.174 134.259 136.38 133.49 136.38C132.505 136.38 131.727 136.042 131.155 135.367C130.958 135.123 130.775 135.001 130.606 135.001C130.418 135.001 130.17 135.118 129.86 135.353C128.922 136.038 127.857 136.38 126.666 136.38C125.437 136.38 124.443 136.117 123.683 135.592C123.186 135.245 122.792 134.795 122.501 134.241C122.21 133.678 122.065 133.092 122.065 132.482C122.065 131.507 122.459 130.644 123.247 129.893C124.476 128.711 126.314 128.116 128.763 128.106C129.307 128.106 129.649 128.055 129.79 127.952C129.93 127.839 130.001 127.586 130.001 127.192C130.001 126.198 129.898 125.48 129.691 125.039C129.485 124.589 129.147 124.364 128.678 124.364C128.397 124.364 128.143 124.448 127.918 124.617C127.703 124.786 127.431 125.095 127.102 125.546C126.267 126.737 125.395 127.333 124.485 127.333C124.026 127.333 123.65 127.197 123.36 126.925C123.069 126.652 122.923 126.296 122.923 125.855C122.923 125.405 123.102 124.955 123.458 124.504C123.824 124.054 124.316 123.66 124.935 123.322C126.633 122.422 128.406 121.972 130.254 121.972ZM129.311 130.119C128.899 130.119 128.537 130.287 128.228 130.625C127.928 130.963 127.778 131.366 127.778 131.835C127.778 132.285 127.886 132.651 128.101 132.933C128.317 133.205 128.603 133.341 128.96 133.341C129.71 133.341 130.085 132.707 130.085 131.441C130.085 130.925 130.029 130.578 129.916 130.4C129.813 130.222 129.612 130.128 129.311 130.119Z" fill="white"/>
<path d="M145.141 122.07C145.638 122.07 145.938 122.141 146.041 122.281C146.154 122.422 146.252 122.872 146.337 123.632C146.384 124.045 146.529 124.251 146.773 124.251C146.96 124.251 147.139 124.115 147.308 123.843C148.058 122.671 149.038 122.084 150.248 122.084C151.102 122.084 151.801 122.361 152.345 122.914C152.607 123.186 152.823 123.538 152.992 123.97C153.161 124.392 153.245 124.8 153.245 125.194C153.245 125.635 153.142 126.09 152.936 126.559C152.729 127.018 152.462 127.398 152.134 127.698C151.533 128.271 150.797 128.557 149.925 128.557C149.446 128.557 149.043 128.472 148.715 128.303C148.396 128.135 147.974 127.792 147.448 127.276C147.251 127.079 147.068 126.981 146.899 126.981C146.637 126.981 146.463 127.131 146.379 127.431C146.304 127.722 146.266 128.341 146.266 129.288C146.266 130.705 146.318 131.671 146.421 132.187C146.487 132.468 146.576 132.665 146.688 132.778C146.81 132.881 147.064 132.989 147.448 133.101C148.292 133.355 148.715 133.796 148.715 134.424C148.715 134.809 148.579 135.146 148.307 135.437C148.034 135.719 147.673 135.906 147.223 136C146.323 136.188 145 136.281 143.255 136.281C141.595 136.281 140.333 136.136 139.47 135.845C138.701 135.583 138.316 135.128 138.316 134.48C138.316 133.993 138.598 133.556 139.161 133.172C139.433 132.994 139.62 132.834 139.724 132.693C139.827 132.543 139.897 132.342 139.935 132.088C140.085 131.235 140.16 129.654 140.16 127.347C140.16 126.925 140.113 126.624 140.019 126.446C139.925 126.259 139.738 126.108 139.456 125.996C138.79 125.733 138.457 125.353 138.457 124.856C138.457 124.406 138.687 124.021 139.147 123.702C139.606 123.374 140.375 123.05 141.454 122.732C142.899 122.3 144.128 122.08 145.141 122.07Z" fill="white"/>
<path d="M162.771 125.672V130.428C162.771 130.991 162.907 131.451 163.179 131.807C163.46 132.163 163.817 132.342 164.248 132.342C164.614 132.342 165.097 132.173 165.698 131.835C165.838 131.751 165.979 131.708 166.12 131.708C166.345 131.708 166.551 131.845 166.739 132.117C166.926 132.389 167.02 132.684 167.02 133.003C167.02 133.585 166.701 134.143 166.064 134.677C164.731 135.812 163.118 136.38 161.223 136.38C159.722 136.38 158.517 135.958 157.607 135.114C156.697 134.26 156.242 133.139 156.242 131.751V125.25C156.242 125.034 156.214 124.903 156.158 124.856C156.111 124.8 155.98 124.772 155.764 124.772H154.315C154.043 124.772 153.869 124.73 153.794 124.645C153.719 124.551 153.681 124.34 153.681 124.012V123.393C153.691 123.111 153.799 122.905 154.005 122.774L160.449 118.721C160.609 118.637 160.806 118.595 161.04 118.595H162.18C162.415 118.595 162.569 118.651 162.644 118.764C162.729 118.867 162.771 119.078 162.771 119.397V121.296C162.771 121.578 162.813 121.761 162.898 121.845C162.991 121.929 163.184 121.972 163.475 121.972H166.078C166.425 121.972 166.65 122.037 166.753 122.169C166.856 122.291 166.908 122.558 166.908 122.971V123.801C166.908 124.251 166.842 124.565 166.711 124.744C166.579 124.912 166.34 124.997 165.993 124.997H163.446C163.184 124.997 163.006 125.044 162.912 125.138C162.818 125.231 162.771 125.41 162.771 125.672Z" fill="white"/>
</g>
<defs>
<filter id="filter0_dd_218_38" x="0.478873" y="0" width="261.042" height="261.042" filterUnits="userSpaceOnUse" color-interpolation-filters="sRGB">
<feFlood flood-opacity="0" result="BackgroundImageFix"/>
<feColorMatrix in="SourceAlpha" type="matrix" values="0 0 0 0 0 0 0 0 0 0 0 0 0 0 0 0 0 0 127 0" result="hardAlpha"/>
<feOffset dy="5.52113"/>
<feGaussianBlur stdDeviation="2.76056"/>
<feComposite in2="hardAlpha" operator="out"/>
<feColorMatrix type="matrix" values="0 0 0 0 0 0 0 0 0 0 0 0 0 0 0 0 0 0 0.25 0"/>
<feBlend mode="normal" in2="BackgroundImageFix" result="effect1_dropShadow_218_38"/>
<feColorMatrix in="SourceAlpha" type="matrix" values="0 0 0 0 0 0 0 0 0 0 0 0 0 0 0 0 0 0 127 0" result="hardAlpha"/>
<feOffset dy="4"/>
<feGaussianBlur stdDeviation="2"/>
<feComposite in2="hardAlpha" operator="out"/>
<feColorMatrix type="matrix" values="0 0 0 0 0 0 0 0 0 0 0 0 0 0 0 0 0 0 0.25 0"/>
<feBlend mode="normal" in2="effect1_dropShadow_218_38" result="effect2_dropShadow_218_38"/>
<feBlend mode="normal" in="SourceGraphic" in2="effect2_dropShadow_218_38" result="shape"/>
</filter>
</defs>
</svg>
