<svg width="74" height="74" viewBox="0 0 74 74" fill="none" xmlns="http://www.w3.org/2000/svg">
<path d="M74 37C74 57.4345 57.4345 74 37 74C16.5655 74 0 57.4345 0 37C0 16.5655 16.5655 0 37 0C57.4345 0 74 16.5655 74 37Z" fill="#FAF8EB"/>
<path d="M56 32.6667V28.5238C56 28.3368 55.9346 28.175 55.8038 28.0383C55.6731 27.9017 55.5182 27.8333 55.3393 27.8333H26.9286V23.6905C26.9286 23.5035 26.8632 23.3416 26.7324 23.205C26.6017 23.0683 26.4468 23 26.2679 23C26.1027 23 25.9375 23.0719 25.7723 23.2158L19.1858 30.1205C19.0619 30.25 19 30.4082 19 30.5952C19 30.7966 19.0619 30.9621 19.1858 31.0915L25.793 37.9963C25.9169 38.1257 26.0751 38.1905 26.2679 38.1905C26.4468 38.1905 26.6017 38.1221 26.7324 37.9855C26.8632 37.8488 26.9286 37.687 26.9286 37.5V33.3571H55.3393C55.5182 33.3571 55.6731 33.2888 55.8038 33.1522C55.9346 33.0155 56 32.8537 56 32.6667ZM56 44.4048C56 44.2034 55.9381 44.0379 55.8142 43.9085L49.207 37.0037C49.0831 36.8743 48.9249 36.8095 48.7321 36.8095C48.5532 36.8095 48.3983 36.8779 48.2676 37.0145C48.1368 37.1512 48.0714 37.313 48.0714 37.5V41.6429H19.6607C19.4818 41.6429 19.3269 41.7112 19.1961 41.8478C19.0654 41.9845 19 42.1463 19 42.3333V46.4762C19 46.6632 19.0654 46.825 19.1961 46.9617C19.3269 47.0983 19.4818 47.1667 19.6607 47.1667H48.0714V51.3095C48.0714 51.5109 48.1334 51.6763 48.2573 51.8058C48.3811 51.9353 48.5394 52 48.7321 52C48.8973 52 49.0625 51.9281 49.2277 51.7842L55.8142 44.901C55.9381 44.7716 56 44.6062 56 44.4048Z" fill="#8EA8A0"/>
</svg>
