<svg width="74" height="74" viewBox="0 0 74 74" fill="none" xmlns="http://www.w3.org/2000/svg">
<path d="M37.0012 0C16.5674 0 2.75364e-07 16.5661 2.75364e-07 37C-0.00246639 57.4339 16.5674 74 37 74C57.4376 74 74.0025 57.4339 74 37C74.0025 16.5661 57.4339 0 37.0012 0ZM10.9002 50.1819C10.5327 45.8048 10.7337 41.3771 10.7633 36.9963C10.7349 32.6143 10.566 28.1965 10.9002 23.8194C12.7724 28.083 13.2398 32.581 13.3262 37.0074C13.2682 41.4252 12.7712 45.9293 10.9002 50.1819ZM15.598 56.7716C15.6152 50.304 16 43.8364 16.0309 37.3663C16.0617 30.6533 15.6374 23.9439 15.598 17.2284C17.8673 23.6985 18.4877 30.3758 18.5962 37.0074C18.4864 43.6341 17.8747 50.3064 15.598 56.7716ZM50.246 55.225C50.246 58.1011 47.8731 60.4333 44.9464 60.4333H29.0549C26.1282 60.4333 23.7552 58.1011 23.7552 55.225V18.775C23.7552 15.8989 26.1282 13.5667 29.0549 13.5667H44.9476C47.8743 13.5667 50.2472 15.8989 50.2472 18.775L50.246 55.225ZM58.4033 56.7716C56.1339 50.3015 55.5148 43.6242 55.4063 36.9951C55.5148 30.3659 56.1265 23.6936 58.4033 17.2284C58.386 23.6985 58.0012 30.1661 57.9716 36.6337C57.9408 43.3492 58.3638 50.0585 58.4033 56.7716ZM63.1023 50.1819C61.2301 45.9182 60.7614 41.4203 60.6763 36.9963C60.7343 32.576 61.2301 28.0719 63.1023 23.8194C63.4686 28.1965 63.2688 32.6241 63.2392 37.0074C63.2688 41.387 63.4377 45.8048 63.1023 50.1819Z" fill="#FAF8EB"/>
<path d="M37 57.1819C38.3623 57.1819 39.4667 56.4289 39.4667 55.5001C39.4667 54.5712 38.3623 53.8182 37 53.8182C35.6377 53.8182 34.5333 54.5712 34.5333 55.5001C34.5333 56.4289 35.6377 57.1819 37 57.1819Z" fill="#FAF8EB"/>
<path d="M26.3111 18.4761H47.6889V52.1363H26.3111V18.4761ZM34.3842 16.4518H39.6133C39.9828 16.4518 40.2814 16.1553 40.2814 15.7928C40.2814 15.4303 39.9828 15.1363 39.6133 15.1363H34.3842C34.0147 15.1363 33.7161 15.4303 33.7161 15.7928C33.7161 16.1553 34.016 16.4518 34.3842 16.4518Z" fill="#FAF8EB"/>
</svg>
