<?xml version="1.0" standalone="no"?>
<svg xmlns:xlink="http://www.w3.org/1999/xlink" id="wave" style="transform:rotate(0deg); transition: 0.3s" viewBox="0 0 1440 390" version="1.1" xmlns="http://www.w3.org/2000/svg"><defs><linearGradient id="sw-gradient-0" x1="0" x2="0" y1="1" y2="0"><stop stop-color="rgba(134, 14, 16, 1)" offset="0%"/><stop stop-color="rgba(134, 73, 160, 1)" offset="100%"/></linearGradient></defs><path style="transform:translate(0, 0px); opacity:1" fill="url(#sw-gradient-0)" d="M0,273L48,273C96,273,192,273,288,234C384,195,480,117,576,84.5C672,52,768,65,864,97.5C960,130,1056,182,1152,188.5C1248,195,1344,156,1440,175.5C1536,195,1632,273,1728,279.5C1824,286,1920,221,2016,182C2112,143,2208,130,2304,143C2400,156,2496,195,2592,201.5C2688,208,2784,182,2880,143C2976,104,3072,52,3168,78C3264,104,3360,208,3456,227.5C3552,247,3648,182,3744,169C3840,156,3936,195,4032,227.5C4128,260,4224,286,4320,299C4416,312,4512,312,4608,318.5C4704,325,4800,338,4896,318.5C4992,299,5088,247,5184,221C5280,195,5376,195,5472,175.5C5568,156,5664,117,5760,117C5856,117,5952,156,6048,143C6144,130,6240,65,6336,65C6432,65,6528,130,6624,169C6720,208,6816,221,6864,227.5L6912,234L6912,390L6864,390C6816,390,6720,390,6624,390C6528,390,6432,390,6336,390C6240,390,6144,390,6048,390C5952,390,5856,390,5760,390C5664,390,5568,390,5472,390C5376,390,5280,390,5184,390C5088,390,4992,390,4896,390C4800,390,4704,390,4608,390C4512,390,4416,390,4320,390C4224,390,4128,390,4032,390C3936,390,3840,390,3744,390C3648,390,3552,390,3456,390C3360,390,3264,390,3168,390C3072,390,2976,390,2880,390C2784,390,2688,390,2592,390C2496,390,2400,390,2304,390C2208,390,2112,390,2016,390C1920,390,1824,390,1728,390C1632,390,1536,390,1440,390C1344,390,1248,390,1152,390C1056,390,960,390,864,390C768,390,672,390,576,390C480,390,384,390,288,390C192,390,96,390,48,390L0,390Z"/><defs><linearGradient id="sw-gradient-1" x1="0" x2="0" y1="1" y2="0"><stop stop-color="rgba(134, 14, 16, 1)" offset="0%"/><stop stop-color="rgba(134, 73, 160, 1)" offset="100%"/></linearGradient></defs><path style="transform:translate(0, 50px); opacity:0.9" fill="url(#sw-gradient-1)" d="M0,156L48,162.5C96,169,192,182,288,175.5C384,169,480,143,576,136.5C672,130,768,143,864,169C960,195,1056,234,1152,260C1248,286,1344,299,1440,279.5C1536,260,1632,208,1728,182C1824,156,1920,156,2016,182C2112,208,2208,260,2304,247C2400,234,2496,156,2592,130C2688,104,2784,130,2880,175.5C2976,221,3072,286,3168,305.5C3264,325,3360,299,3456,253.5C3552,208,3648,143,3744,156C3840,169,3936,260,4032,292.5C4128,325,4224,299,4320,240.5C4416,182,4512,91,4608,58.5C4704,26,4800,52,4896,91C4992,130,5088,182,5184,208C5280,234,5376,234,5472,227.5C5568,221,5664,208,5760,175.5C5856,143,5952,91,6048,104C6144,117,6240,195,6336,195C6432,195,6528,117,6624,84.5C6720,52,6816,65,6864,71.5L6912,78L6912,390L6864,390C6816,390,6720,390,6624,390C6528,390,6432,390,6336,390C6240,390,6144,390,6048,390C5952,390,5856,390,5760,390C5664,390,5568,390,5472,390C5376,390,5280,390,5184,390C5088,390,4992,390,4896,390C4800,390,4704,390,4608,390C4512,390,4416,390,4320,390C4224,390,4128,390,4032,390C3936,390,3840,390,3744,390C3648,390,3552,390,3456,390C3360,390,3264,390,3168,390C3072,390,2976,390,2880,390C2784,390,2688,390,2592,390C2496,390,2400,390,2304,390C2208,390,2112,390,2016,390C1920,390,1824,390,1728,390C1632,390,1536,390,1440,390C1344,390,1248,390,1152,390C1056,390,960,390,864,390C768,390,672,390,576,390C480,390,384,390,288,390C192,390,96,390,48,390L0,390Z"/><defs><linearGradient id="sw-gradient-2" x1="0" x2="0" y1="1" y2="0"><stop stop-color="rgba(134, 14, 16, 0.84)" offset="0%"/><stop stop-color="rgba(134, 73, 160, 0.87)" offset="100%"/></linearGradient></defs><path style="transform:translate(0, 100px); opacity:0.8" fill="url(#sw-gradient-2)" d="M0,39L48,45.5C96,52,192,65,288,78C384,91,480,104,576,104C672,104,768,91,864,123.5C960,156,1056,234,1152,221C1248,208,1344,104,1440,58.5C1536,13,1632,26,1728,58.5C1824,91,1920,143,2016,175.5C2112,208,2208,221,2304,208C2400,195,2496,156,2592,123.5C2688,91,2784,65,2880,71.5C2976,78,3072,117,3168,130C3264,143,3360,130,3456,162.5C3552,195,3648,273,3744,279.5C3840,286,3936,221,4032,175.5C4128,130,4224,104,4320,78C4416,52,4512,26,4608,71.5C4704,117,4800,234,4896,253.5C4992,273,5088,195,5184,136.5C5280,78,5376,39,5472,52C5568,65,5664,130,5760,143C5856,156,5952,117,6048,143C6144,169,6240,260,6336,273C6432,286,6528,221,6624,169C6720,117,6816,78,6864,58.5L6912,39L6912,390L6864,390C6816,390,6720,390,6624,390C6528,390,6432,390,6336,390C6240,390,6144,390,6048,390C5952,390,5856,390,5760,390C5664,390,5568,390,5472,390C5376,390,5280,390,5184,390C5088,390,4992,390,4896,390C4800,390,4704,390,4608,390C4512,390,4416,390,4320,390C4224,390,4128,390,4032,390C3936,390,3840,390,3744,390C3648,390,3552,390,3456,390C3360,390,3264,390,3168,390C3072,390,2976,390,2880,390C2784,390,2688,390,2592,390C2496,390,2400,390,2304,390C2208,390,2112,390,2016,390C1920,390,1824,390,1728,390C1632,390,1536,390,1440,390C1344,390,1248,390,1152,390C1056,390,960,390,864,390C768,390,672,390,576,390C480,390,384,390,288,390C192,390,96,390,48,390L0,390Z"/><defs><linearGradient id="sw-gradient-3" x1="0" x2="0" y1="1" y2="0"><stop stop-color="rgba(134, 14, 16, 0.69)" offset="0%"/><stop stop-color="rgba(134, 73, 160, 0.32)" offset="100%"/></linearGradient></defs><path style="transform:translate(0, 150px); opacity:0.7" fill="url(#sw-gradient-3)" d="M0,351L48,318.5C96,286,192,221,288,162.5C384,104,480,52,576,65C672,78,768,156,864,201.5C960,247,1056,260,1152,266.5C1248,273,1344,273,1440,266.5C1536,260,1632,247,1728,208C1824,169,1920,104,2016,110.5C2112,117,2208,195,2304,188.5C2400,182,2496,91,2592,78C2688,65,2784,130,2880,149.5C2976,169,3072,143,3168,149.5C3264,156,3360,195,3456,221C3552,247,3648,260,3744,227.5C3840,195,3936,117,4032,97.5C4128,78,4224,117,4320,162.5C4416,208,4512,260,4608,292.5C4704,325,4800,338,4896,344.5C4992,351,5088,351,5184,318.5C5280,286,5376,221,5472,188.5C5568,156,5664,156,5760,136.5C5856,117,5952,78,6048,52C6144,26,6240,13,6336,58.5C6432,104,6528,208,6624,214.5C6720,221,6816,130,6864,84.5L6912,39L6912,390L6864,390C6816,390,6720,390,6624,390C6528,390,6432,390,6336,390C6240,390,6144,390,6048,390C5952,390,5856,390,5760,390C5664,390,5568,390,5472,390C5376,390,5280,390,5184,390C5088,390,4992,390,4896,390C4800,390,4704,390,4608,390C4512,390,4416,390,4320,390C4224,390,4128,390,4032,390C3936,390,3840,390,3744,390C3648,390,3552,390,3456,390C3360,390,3264,390,3168,390C3072,390,2976,390,2880,390C2784,390,2688,390,2592,390C2496,390,2400,390,2304,390C2208,390,2112,390,2016,390C1920,390,1824,390,1728,390C1632,390,1536,390,1440,390C1344,390,1248,390,1152,390C1056,390,960,390,864,390C768,390,672,390,576,390C480,390,384,390,288,390C192,390,96,390,48,390L0,390Z"/></svg>