<?xml version="1.0" standalone="no"?>
<svg xmlns:xlink="http://www.w3.org/1999/xlink" id="wave" style="transform:rotate(0deg); transition: 0.3s" viewBox="0 0 1440 390" version="1.1" xmlns="http://www.w3.org/2000/svg"><defs><linearGradient id="sw-gradient-0" x1="0" x2="0" y1="1" y2="0"><stop stop-color="rgba(134, 14, 16, 1)" offset="0%"/><stop stop-color="rgba(134, 73, 160, 1)" offset="100%"/></linearGradient></defs><path style="transform:translate(0, 0px); opacity:1" fill="url(#sw-gradient-0)" d="M0,273L144,273L288,39L432,78L576,234L720,117L864,351L1008,156L1152,117L1296,234L1440,156L1584,0L1728,312L1872,117L2016,234L2160,312L2304,312L2448,351L2592,195L2736,195L2880,78L3024,195L3168,0L3312,195L3456,234L3456,390L3312,390L3168,390L3024,390L2880,390L2736,390L2592,390L2448,390L2304,390L2160,390L2016,390L1872,390L1728,390L1584,390L1440,390L1296,390L1152,390L1008,390L864,390L720,390L576,390L432,390L288,390L144,390L0,390Z"/><defs><linearGradient id="sw-gradient-1" x1="0" x2="0" y1="1" y2="0"><stop stop-color="rgba(134, 14, 16, 1)" offset="0%"/><stop stop-color="rgba(134, 73, 160, 1)" offset="100%"/></linearGradient></defs><path style="transform:translate(0, 50px); opacity:0.9" fill="url(#sw-gradient-1)" d="M0,156L144,195L288,117L432,156L576,273L720,312L864,156L1008,156L1152,312L1296,78L1440,156L1584,351L1728,273L1872,78L2016,351L2160,273L2304,0L2448,78L2592,234L2736,234L2880,195L3024,39L3168,273L3312,39L3456,78L3456,390L3312,390L3168,390L3024,390L2880,390L2736,390L2592,390L2448,390L2304,390L2160,390L2016,390L1872,390L1728,390L1584,390L1440,390L1296,390L1152,390L1008,390L864,390L720,390L576,390L432,390L288,390L144,390L0,390Z"/><defs><linearGradient id="sw-gradient-2" x1="0" x2="0" y1="1" y2="0"><stop stop-color="rgba(134, 14, 16, 0.84)" offset="0%"/><stop stop-color="rgba(134, 73, 160, 0.87)" offset="100%"/></linearGradient></defs><path style="transform:translate(0, 100px); opacity:0.8" fill="url(#sw-gradient-2)" d="M0,39L144,78L288,117L432,78L576,312L720,0L864,39L1008,195L1152,234L1296,117L1440,39L1584,156L1728,117L1872,351L2016,156L2160,78L2304,0L2448,351L2592,117L2736,0L2880,195L3024,78L3168,351L3312,156L3456,39L3456,390L3312,390L3168,390L3024,390L2880,390L2736,390L2592,390L2448,390L2304,390L2160,390L2016,390L1872,390L1728,390L1584,390L1440,390L1296,390L1152,390L1008,390L864,390L720,390L576,390L432,390L288,390L144,390L0,390Z"/><defs><linearGradient id="sw-gradient-3" x1="0" x2="0" y1="1" y2="0"><stop stop-color="rgba(134, 14, 16, 0.69)" offset="0%"/><stop stop-color="rgba(134, 73, 160, 0.32)" offset="100%"/></linearGradient></defs><path style="transform:translate(0, 150px); opacity:0.7" fill="url(#sw-gradient-3)" d="M0,351L144,156L288,0L432,234L576,273L720,273L864,234L1008,39L1152,273L1296,0L1440,195L1584,117L1728,234L1872,273L2016,39L2160,156L2304,312L2448,351L2592,351L2736,156L2880,156L3024,39L3168,0L3312,312L3456,39L3456,390L3312,390L3168,390L3024,390L2880,390L2736,390L2592,390L2448,390L2304,390L2160,390L2016,390L1872,390L1728,390L1584,390L1440,390L1296,390L1152,390L1008,390L864,390L720,390L576,390L432,390L288,390L144,390L0,390Z"/></svg>