<svg width="77" height="52" viewBox="0 0 77 52" fill="none" xmlns="http://www.w3.org/2000/svg">
<path d="M72.9361 21.3887H4.06389C1.81947 21.3887 0 23.2082 0 25.4526V25.8804C0 28.1248 1.81947 29.9443 4.06389 29.9443H72.9361C75.1805 29.9443 77 28.1248 77 25.8804V25.4526C77 23.2082 75.1805 21.3887 72.9361 21.3887Z" fill="#FAF8EB"/>
<path d="M72.9361 42.7779H4.06389C1.81947 42.7779 0 44.5973 0 46.8417V47.2695C0 49.5139 1.81947 51.3334 4.06389 51.3334H72.9361C75.1805 51.3334 77 49.5139 77 47.2695V46.8417C77 44.5973 75.1805 42.7779 72.9361 42.7779Z" fill="#FAF8EB"/>
<path d="M72.9361 0H4.06389C1.81947 0 0 1.81946 0 4.06389V4.49167C0 6.73609 1.81947 8.55556 4.06389 8.55556H72.9361C75.1805 8.55556 77 6.73609 77 4.49167V4.06389C77 1.81946 75.1805 0 72.9361 0Z" fill="#FAF8EB"/>
</svg>
