<svg width="85" height="60" viewBox="0 0 85 60" fill="none" xmlns="http://www.w3.org/2000/svg">
<g filter="url(#filter0_d_215_16)">
<path d="M76.9361 21.3887H8.06389C5.81947 21.3887 4 23.2082 4 25.4526V25.8804C4 28.1248 5.81947 29.9443 8.06389 29.9443H76.9361C79.1805 29.9443 81 28.1248 81 25.8804V25.4526C81 23.2082 79.1805 21.3887 76.9361 21.3887Z" fill="#FAF8EB"/>
<path d="M76.9361 42.7779H8.06389C5.81947 42.7779 4 44.5973 4 46.8417V47.2695C4 49.5139 5.81947 51.3334 8.06389 51.3334H76.9361C79.1805 51.3334 81 49.5139 81 47.2695V46.8417C81 44.5973 79.1805 42.7779 76.9361 42.7779Z" fill="#FAF8EB"/>
<path d="M76.9361 0H8.06389C5.81947 0 4 1.81946 4 4.06389V4.49167C4 6.73609 5.81947 8.55556 8.06389 8.55556H76.9361C79.1805 8.55556 81 6.73609 81 4.49167V4.06389C81 1.81946 79.1805 0 76.9361 0Z" fill="#FAF8EB"/>
</g>
<defs>
<filter id="filter0_d_215_16" x="0" y="0" width="85" height="59.3334" filterUnits="userSpaceOnUse" color-interpolation-filters="sRGB">
<feFlood flood-opacity="0" result="BackgroundImageFix"/>
<feColorMatrix in="SourceAlpha" type="matrix" values="0 0 0 0 0 0 0 0 0 0 0 0 0 0 0 0 0 0 127 0" result="hardAlpha"/>
<feOffset dy="4"/>
<feGaussianBlur stdDeviation="2"/>
<feComposite in2="hardAlpha" operator="out"/>
<feColorMatrix type="matrix" values="0 0 0 0 0 0 0 0 0 0 0 0 0 0 0 0 0 0 0.25 0"/>
<feBlend mode="normal" in2="BackgroundImageFix" result="effect1_dropShadow_215_16"/>
<feBlend mode="normal" in="SourceGraphic" in2="effect1_dropShadow_215_16" result="shape"/>
</filter>
</defs>
</svg>
