<svg width="74" height="74" viewBox="0 0 74 74" fill="none" xmlns="http://www.w3.org/2000/svg">
<path d="M74 37C74 57.4345 57.4345 74 37 74C16.5655 74 0 57.4345 0 37C0 16.5655 16.5655 0 37 0C57.4345 0 74 16.5655 74 37Z" fill="#FAF8EB"/>
<path fill-rule="evenodd" clip-rule="evenodd" d="M34.2485 24.4541L27.9699 30.5741C27.9597 30.5841 27.9492 30.5939 27.9386 30.6035C27.6257 30.8878 27.2592 31.1057 26.8657 31.2522C26.4722 31.3988 26.0538 31.4732 25.6344 31.4745L25.6306 31.4745H18.1C17.4894 31.4745 17.2244 31.8919 17.2244 32.1351V42.8635C17.2244 43.1092 17.4902 43.5259 18.1 43.5259H25.617C26.0433 43.527 26.4685 43.6037 26.8676 43.7548C27.2668 43.9058 27.6376 44.1306 27.952 44.4236L27.971 44.4417L34.236 50.5345C34.5091 50.7794 34.9061 50.8407 35.2713 50.7073C35.6389 50.5731 35.7756 50.3304 35.7756 50.1099V24.8905C35.7756 24.672 35.6404 24.4304 35.2766 24.2949C34.9176 24.1613 34.5243 24.2166 34.2485 24.4541ZM36.131 22.0001C37.2288 22.4088 38.2244 23.4287 38.2244 24.8905V50.1099C38.2244 51.5824 37.2166 52.6039 36.1111 53.0075C35.0074 53.4105 33.6075 53.2863 32.5663 52.3258C32.5619 52.3218 32.5575 52.3177 32.5532 52.3135C32.5497 52.3102 32.5462 52.3069 32.5428 52.3036L26.2755 46.2086C26.2068 46.1464 26.1149 46.0882 26.0008 46.0449C25.8829 46.0003 25.7501 45.9752 25.6119 45.9747H18.1C16.3915 45.9747 14.7756 44.7021 14.7756 42.8635V32.1351C14.7756 30.2976 16.3923 29.0257 18.1 29.0257H25.6285C25.7642 29.0251 25.8949 29.0007 26.0113 28.9574C26.1215 28.9164 26.2114 28.8612 26.2799 28.8018L32.5607 22.6797C32.5725 22.6682 32.5846 22.6569 32.5969 22.6458C33.6434 21.7053 35.0348 21.5919 36.131 22.0001Z" fill="#8EA8A0"/>
<path fill-rule="evenodd" clip-rule="evenodd" d="M44.1134 28.1556C44.5798 27.6659 45.3548 27.6471 45.8445 28.1134C48.1295 30.2899 49.2244 33.4309 49.2244 36.5C49.2244 39.5691 48.1295 42.7101 45.8445 44.8866C45.3548 45.3529 44.5798 45.3341 44.1134 44.8445C43.6471 44.3548 43.6659 43.5798 44.1556 43.1134C45.8705 41.4799 46.7756 39.0259 46.7756 36.5C46.7756 33.9741 45.8705 31.5201 44.1556 29.8866C43.6659 29.4202 43.6471 28.6452 44.1134 28.1556Z" fill="#8EA8A0"/>
<path fill-rule="evenodd" clip-rule="evenodd" d="M51.0683 24.2057C51.507 23.6911 52.2798 23.6296 52.7943 24.0683C61.3375 31.3519 61.3998 43.6869 52.7885 50.9367C52.2713 51.3722 51.4989 51.3059 51.0634 50.7886C50.6279 50.2713 50.6942 49.4989 51.2115 49.0634C58.6482 42.8025 58.6144 32.2482 51.2057 25.9317C50.6911 25.493 50.6296 24.7203 51.0683 24.2057Z" fill="#8EA8A0"/>
</svg>
