<svg width="74" height="74" viewBox="0 0 74 74" fill="none" xmlns="http://www.w3.org/2000/svg">
<path d="M74 37C74 57.4345 57.4345 74 37 74C16.5655 74 0 57.4345 0 37C0 16.5655 16.5655 0 37 0C57.4345 0 74 16.5655 74 37Z" fill="#FAF8EB"/>
<path d="M36.979 16C25.387 16 16 25.408 16 37C16 48.592 25.387 58 36.979 58C48.592 58 58 48.592 58 37C58 25.408 48.592 16 36.979 16ZM37 53.8C27.718 53.8 20.2 46.282 20.2 37C20.2 27.718 27.718 20.2 37 20.2C46.282 20.2 53.8 27.718 53.8 37C53.8 46.282 46.282 53.8 37 53.8ZM38.05 26.5H34.9V39.1L45.925 45.715L47.5 43.132L38.05 37.525V26.5Z" fill="#8EA8A0"/>
</svg>
